<?xml version="1.0" encoding="utf-8"?>
<!-- Generator: Adobe Illustrator 16.0.0, SVG Export Plug-In . SVG Version: 6.00 Build 0)  -->
<!DOCTYPE svg PUBLIC "-//W3C//DTD SVG 1.1//EN" "http://www.w3.org/Graphics/SVG/1.1/DTD/svg11.dtd">
<svg version="1.1" xmlns="http://www.w3.org/2000/svg" xmlns:xlink="http://www.w3.org/1999/xlink" x="0px" y="0px" width="1600px"
	 height="900px" viewBox="0 0 1600 900" enable-background="new 0 0 1600 900" xml:space="preserve">
<g id="Layer_1">
	<g id="TABS">
		<g>
			<path fill="none" stroke="#0000FF" stroke-width="0.5898" stroke-miterlimit="10" d="M815.867,362.369l109.055-39.691
				 M844.922,102.877L804.359,79.52c-1.893-1.089-4.171-1.285-6.223-0.539l-100.374,36.533c-3.838,1.393-5.816,5.636-4.42,9.474
				c0,0,0,0,0.001,0.002l79.014,217.087"/>
		</g>
		<path fill="none" stroke="#0000FF" stroke-width="0.5898" stroke-miterlimit="10" d="M844.922,102.877l80,219.8L844.922,102.877z"
			/>
		<g>
			<path fill="none" stroke="#0000FF" stroke-width="0.5898" stroke-miterlimit="10" d="M1081.857,357.555l109.053-39.689
				 M1110.907,98.063l-40.562-23.357c-1.895-1.089-4.171-1.285-6.225-0.539L963.75,110.7c-3.84,1.393-5.816,5.636-4.42,9.474
				c0,0,0,0,0,0.002l79.015,217.087"/>
		</g>
		<path fill="none" stroke="#0000FF" stroke-width="0.5898" stroke-miterlimit="10" d="M1110.907,98.063l80,219.8L1110.907,98.063z"
			/>
		<g>
			<path fill="none" stroke="#0000FF" stroke-width="0.5898" stroke-miterlimit="10" d="M1315.395,302.339l109.053-39.691
				 M1344.448,42.847l-40.562-23.357c-1.895-1.089-4.171-1.285-6.225-0.539l-100.374,36.533c-3.838,1.393-5.814,5.636-4.42,9.474
				c0,0,0,0,0.001,0.002l79.016,217.087"/>
		</g>
		
			<line fill="none" stroke="#0000FF" stroke-width="0.5898" stroke-miterlimit="10" x1="1344.448" y1="42.847" x2="1380.927" y2="143.074"/>
		<path fill="none" stroke="#0000FF" stroke-width="0.5898" stroke-miterlimit="10" d="M1380.927,143.074"/>
		<g>
			<path fill="none" stroke="#0000FF" stroke-width="0.5898" stroke-miterlimit="10" d="M858.961,582.774l-109.055,39.69
				 M829.906,842.265l40.562,23.357c1.893,1.09,4.171,1.285,6.223,0.539l100.374-36.533c3.838-1.393,5.816-5.635,4.42-9.473
				c0,0,0,0-0.001-0.004l-79.014-217.087"/>
		</g>
		<path fill="none" stroke="#0000FF" stroke-width="0.5898" stroke-miterlimit="10" d="M829.906,842.265l-80-219.799
			L829.906,842.265z"/>
		<g>
			<path fill="none" stroke="#0000FF" stroke-width="0.5898" stroke-miterlimit="10" d="M1109.948,557.644l-109.053,39.691
				 M1080.896,817.135l40.562,23.357c1.895,1.09,4.173,1.285,6.225,0.539l100.374-36.533c3.838-1.393,5.815-5.635,4.42-9.473
				c0,0,0,0-0.001-0.006l-79.014-217.086"/>
		</g>
		<path fill="none" stroke="#0000FF" stroke-width="0.5898" stroke-miterlimit="10" d="M1080.896,817.135l-80-219.8
			L1080.896,817.135z"/>
		<g>
			<path fill="none" stroke="#0000FF" stroke-width="0.5898" stroke-miterlimit="10" d="M1322.472,428.735l-109.053,39.689
				 M1293.418,688.226l40.562,23.357c1.893,1.09,4.171,1.285,6.223,0.539l100.374-36.533c3.84-1.393,5.816-5.635,4.422-9.473
				c0,0,0,0-0.002-0.004l-79.015-217.086"/>
		</g>
		<path fill="none" stroke="#0000FF" stroke-width="0.5898" stroke-miterlimit="10" d="M1293.418,688.226l-80-219.799
			L1293.418,688.226z"/>
	</g>
	<g id="TEXT">
		<rect x="82.627" y="190.104" fill="none" width="247.487" height="39.876"/>
		<text transform="matrix(1 0 0 1 82.6262 198.6719)" fill="#FFFFFF" font-family="'HelveticaNeue'" font-size="12">BABABABBAA</text>
	</g>
	<g id="BACK-LINK">
		<a>
			<rect x="26.92" y="397.5" fill="none" width="278.487" height="14.482"/>
			<text transform="matrix(1 0 0 1 26.9192 404.6396)" fill="#0000FF" font-family="'HelveticaNeue-Bold'" font-size="10">CLICK</text>
			<text transform="matrix(1 0 0 1 57.8396 404.6396)" fill="#0000FF" font-family="'HelveticaNeue-Bold'" font-size="10"> </text>
			<text transform="matrix(1 0 0 1 61.3342 404.6396)" fill="#0000FF" font-family="'HelveticaNeue-Bold'" font-size="10">HERE</text>
			<text transform="matrix(1 0 0 1 88.9236 404.6396)" fill="#0000FF" font-family="'HelveticaNeue-Bold'" font-size="10"> </text>
			<text transform="matrix(1 0 0 1 92.4182 404.6396)" fill="#0000FF" font-family="'HelveticaNeue-Bold'" font-size="10">TO</text>
			<text transform="matrix(1 0 0 1 106.3083 404.6396)" fill="#0000FF" font-family="'HelveticaNeue-Bold'" font-size="10"> </text>
			<text transform="matrix(1 0 0 1 109.8035 404.6396)" fill="#0000FF" font-family="'HelveticaNeue-Bold'" font-size="10">RETURN</text>
			<text transform="matrix(1 0 0 1 151.6526 404.6396)" fill="#0000FF" font-family="'HelveticaNeue-Bold'" font-size="10"> </text>
			<text transform="matrix(1 0 0 1 155.1472 404.6396)" fill="#0000FF" font-family="'HelveticaNeue-Bold'" font-size="10">TO</text>
			<text transform="matrix(1 0 0 1 169.0374 404.6396)" fill="#0000FF" font-family="'HelveticaNeue-Bold'" font-size="10"> </text>
			<text transform="matrix(1 0 0 1 172.5315 404.6396)" fill="#0000FF" font-family="'HelveticaNeue-Bold'" font-size="10">THE</text>
			<text transform="matrix(1 0 0 1 192.5315 404.6396)" fill="#0000FF" font-family="'HelveticaNeue-Bold'" font-size="10"> </text>
			<text transform="matrix(1 0 0 1 196.0266 404.6396)" fill="#0000FF" font-family="'HelveticaNeue-Bold'" font-size="10">CATALOG</text>
			<text transform="matrix(1 0 0 1 244.5457 404.6396)" fill="#0000FF" font-family="'HelveticaNeue-Bold'" font-size="10"> </text>
			<text transform="matrix(1 0 0 1 248.0403 404.6396)" fill="#0000FF" font-family="'HelveticaNeue-Bold'" font-size="10">MAIN</text>
			<text transform="matrix(1 0 0 1 274.3206 404.6396)" fill="#0000FF" font-family="'HelveticaNeue-Bold'" font-size="10"> </text>
			<text transform="matrix(1 0 0 1 277.8157 404.6396)" fill="#0000FF" font-family="'HelveticaNeue-Bold'" font-size="10">PAGE</text>
		</a>
	</g>
	<g id="S2S">
		<g id="Layer_1_1_">
			<polyline fill="none" stroke="#0000FF" stroke-width="5.0943" stroke-miterlimit="10" points="53.554,28.644 53.554,53.554 
				28.644,53.554 			"/>
			<path fill="#0000FF" d="M23.82,32.845c0.199,0.385,0.467,0.697,0.8,0.938c0.332,0.239,0.721,0.415,1.169,0.532
				c0.444,0.116,0.907,0.176,1.388,0.176c0.324,0,0.671-0.028,1.041-0.083c0.371-0.054,0.719-0.157,1.042-0.312
				c0.323-0.155,0.594-0.368,0.809-0.637c0.22-0.271,0.325-0.612,0.325-1.029c0-0.45-0.144-0.809-0.428-1.088
				c-0.286-0.277-0.66-0.507-1.123-0.695c-0.463-0.187-0.988-0.348-1.574-0.486c-0.586-0.14-1.181-0.292-1.784-0.463
				c-0.613-0.154-1.218-0.343-1.805-0.567c-0.585-0.223-1.109-0.512-1.574-0.866c-0.461-0.355-0.836-0.799-1.122-1.333
				c-0.285-0.531-0.427-1.177-0.427-1.932c0-0.849,0.181-1.585,0.543-2.21c0.361-0.625,0.836-1.146,1.422-1.563
				c0.587-0.417,1.25-0.723,1.991-0.925c0.742-0.2,1.48-0.3,2.221-0.3c0.865,0,1.693,0.096,2.489,0.289
				c0.794,0.193,1.501,0.506,2.118,0.937c0.616,0.433,1.104,0.984,1.471,1.656c0.361,0.67,0.542,1.484,0.542,2.44h-3.517
				c-0.03-0.492-0.135-0.902-0.312-1.225c-0.178-0.325-0.413-0.581-0.707-0.764c-0.293-0.187-0.627-0.316-1.006-0.395
				c-0.378-0.076-0.792-0.116-1.239-0.116c-0.292,0-0.585,0.031-0.878,0.094c-0.293,0.062-0.56,0.169-0.798,0.324
				c-0.241,0.155-0.437,0.347-0.591,0.579c-0.153,0.231-0.229,0.524-0.229,0.878c0,0.324,0.062,0.588,0.185,0.787
				c0.123,0.202,0.367,0.386,0.729,0.557s0.863,0.339,1.506,0.509c0.64,0.169,1.477,0.386,2.511,0.648
				c0.308,0.061,0.737,0.172,1.284,0.336c0.548,0.162,1.092,0.42,1.631,0.775c0.541,0.355,1.008,0.828,1.397,1.423
				c0.396,0.592,0.593,1.354,0.593,2.279c0,0.755-0.146,1.457-0.438,2.105c-0.294,0.646-0.729,1.207-1.308,1.679
				c-0.58,0.469-1.297,0.837-2.152,1.098c-0.858,0.264-1.848,0.394-2.975,0.394c-0.911,0-1.794-0.113-2.65-0.337
				c-0.855-0.222-1.612-0.571-2.267-1.051c-0.657-0.478-1.179-1.089-1.562-1.83c-0.386-0.74-0.573-1.618-0.556-2.638h3.517
				C23.518,31.987,23.619,32.458,23.82,32.845"/>
			<polyline fill="none" stroke="#0000FF" stroke-width="5.0943" stroke-miterlimit="10" points="516.446,811.357 516.446,786.447 
				541.355,786.447 			"/>
			<path fill="#0000FF" d="M539.908,815.559c0.2,0.388,0.467,0.694,0.801,0.938c0.329,0.238,0.719,0.413,1.168,0.533
				c0.445,0.113,0.907,0.173,1.388,0.173c0.324,0,0.672-0.028,1.042-0.082c0.372-0.057,0.717-0.157,1.039-0.312
				c0.325-0.153,0.597-0.366,0.811-0.637c0.217-0.271,0.324-0.61,0.324-1.028c0-0.446-0.143-0.811-0.426-1.089
				c-0.285-0.274-0.661-0.507-1.121-0.69c-0.466-0.188-0.99-0.35-1.576-0.487c-0.585-0.14-1.18-0.293-1.782-0.464
				c-0.616-0.155-1.219-0.344-1.805-0.567c-0.586-0.221-1.11-0.511-1.575-0.866c-0.462-0.354-0.836-0.799-1.122-1.331
				c-0.283-0.53-0.426-1.178-0.426-1.934c0-0.848,0.182-1.584,0.543-2.209c0.362-0.627,0.836-1.146,1.423-1.562
				c0.587-0.418,1.25-0.727,1.99-0.93c0.741-0.199,1.479-0.301,2.221-0.301c0.864,0,1.694,0.098,2.486,0.289
				c0.797,0.195,1.504,0.507,2.12,0.939c0.615,0.43,1.104,0.98,1.471,1.653c0.359,0.669,0.543,1.484,0.543,2.439h-3.519
				c-0.031-0.493-0.135-0.901-0.312-1.224c-0.178-0.326-0.412-0.584-0.706-0.768c-0.292-0.186-0.629-0.314-1.007-0.395
				c-0.377-0.077-0.791-0.115-1.239-0.115c-0.293,0-0.584,0.029-0.877,0.094c-0.296,0.062-0.562,0.169-0.8,0.322
				c-0.241,0.155-0.437,0.348-0.59,0.579c-0.153,0.229-0.232,0.523-0.232,0.879c0,0.325,0.063,0.585,0.188,0.786
				c0.124,0.203,0.367,0.387,0.729,0.556c0.36,0.171,0.861,0.34,1.502,0.509c0.643,0.17,1.479,0.389,2.513,0.649
				c0.309,0.062,0.737,0.175,1.285,0.336c0.551,0.161,1.093,0.422,1.631,0.776c0.541,0.354,1.008,0.823,1.398,1.423
				c0.396,0.593,0.592,1.354,0.592,2.278c0,0.755-0.146,1.457-0.44,2.104c-0.292,0.646-0.728,1.208-1.304,1.68
				c-0.579,0.474-1.301,0.838-2.154,1.099c-0.854,0.265-1.849,0.396-2.974,0.396c-0.909,0-1.794-0.113-2.648-0.338
				c-0.857-0.222-1.611-0.571-2.27-1.049c-0.655-0.479-1.178-1.091-1.562-1.831c-0.387-0.74-0.572-1.618-0.556-2.64h3.517
				C539.609,814.699,539.706,815.168,539.908,815.559"/>
		</g>
	</g>
	<g id="NORTH_POINT_1_">
		<g id="NORTH_POINT">
			<g>
				<polyline fill="none" stroke="#0000FF" stroke-width="2.1167" stroke-linejoin="round" stroke-miterlimit="10" points="
					1542.987,802.148 1550,790 1550,819.551 				"/>
				<polyline fill="none" stroke="#0000FF" stroke-width="2.1167" stroke-linejoin="round" stroke-miterlimit="10" points="
					1535.224,850 1535.224,824.409 1550,850 1550,824.409 				"/>
			</g>
		</g>
	</g>
	<g id="T1-TAG">
		<g>
			<path fill="#FFFFFF" stroke="#0000FF" stroke-width="0.5898" stroke-miterlimit="10" d="M537.409,489.472l109.055-39.689
				 M566.464,229.98l-40.562-23.357c-1.893-1.089-4.171-1.285-6.223-0.539l-100.374,36.533c-3.838,1.393-5.816,5.636-4.42,9.474
				c0,0,0,0,0.001,0.002L493.9,469.181"/>
		</g>
		<path fill="#FFFFFF" stroke="#0000FF" stroke-width="0.5898" stroke-miterlimit="10" d="M566.464,229.98l80,219.8L566.464,229.98z
			"/>
	</g>
	<g id="FM_1_">
		<g id="FM">
			
				<image overflow="visible" enable-background="new    " width="4649" height="3187" xlink:href="COMPILEDFASSLERMAP.png"  transform="matrix(0.251 0 0 0.251 400.0002 81.4956)">
			</image>
		</g>
	</g>
	<g id="T1-LINK">
		<a xlink:href="t1.jpg" >
			
				<text transform="matrix(0.9397 -0.342 0.342 0.9397 428.7112 257.7051)" fill="#0000FF" font-family="'Helvetica-BoldOblique'" font-size="8.8466">TEAM 1</text>
			
				<text transform="matrix(0.9397 -0.342 0.342 0.9397 432.342 267.6812)" fill="#0000FF" font-family="'Helvetica-BoldOblique'" font-size="8.8466">Mac, Olive and Chelsea</text>
		</a>
	</g>
	<g id="T2-LINK">
		<a xlink:href="t2.jpg" >
			
				<text transform="matrix(0.9397 -0.342 0.342 0.9397 865.4543 844.0098)" fill="#0000FF" font-family="'Helvetica-BoldOblique'" font-size="8.8466">TEAM 2</text>
			
				<text transform="matrix(0.9397 -0.342 0.342 0.9397 869.0852 853.9863)" fill="#0000FF" font-family="'Helvetica-BoldOblique'" font-size="8.8466">Deniz and Jess</text>
		</a>
	</g>
	<g id="T3-LINK">
		<a xlink:href="t3.jpg" >
			
				<text transform="matrix(0.9397 -0.342 0.342 0.9397 707.1692 130.6025)" fill="#0000FF" font-family="'Helvetica-BoldOblique'" font-size="8.8466">TEAM 3</text>
			
				<text transform="matrix(0.9397 -0.342 0.342 0.9397 710.8 140.5781)" fill="#0000FF" font-family="'Helvetica-BoldOblique'" font-size="8.8466">Nikita and Bella</text>
		</a>
	</g>
	<g id="T4-LINK">
		<a xlink:href="t4.jpg" >
			
				<text transform="matrix(0.9397 -0.342 0.342 0.9397 1116.4426 818.8809)" fill="#0000FF" font-family="'Helvetica-BoldOblique'" font-size="8.8466">TEAM 4</text>
			
				<text transform="matrix(0.9397 -0.342 0.342 0.9397 1120.0725 828.8555)" fill="#0000FF" font-family="'Helvetica-BoldOblique'" font-size="8.8466">Callum and Rose</text>
		</a>
	</g>
	<g id="T5-LINK">
		<a xlink:href="t5.jpg" >
			
				<text transform="matrix(0.9397 -0.342 0.342 0.9397 973.1565 125.7881)" fill="#0000FF" font-family="'Helvetica-BoldOblique'" font-size="8.8466">TEAM 5</text>
			
				<text transform="matrix(0.9397 -0.342 0.342 0.9397 976.7874 135.7637)" fill="#0000FF" font-family="'Helvetica-BoldOblique'" font-size="8.8466">Nikita and Bella</text>
		</a>
	</g>
	<g id="T6-LINK">
		<a xlink:href="t6.jpg" >
			
				<text transform="matrix(0.9397 -0.342 0.342 0.9397 1328.9661 689.9707)" fill="#0000FF" font-family="'Helvetica-BoldOblique'" font-size="8.8466">TEAM 6</text>
			
				<text transform="matrix(0.9397 -0.342 0.342 0.9397 1332.5969 699.9473)" fill="#0000FF" font-family="'Helvetica-BoldOblique'" font-size="8.8466">Norah and Sylvia</text>
		</a>
	</g>
	<g id="T7-LINK">
		<a xlink:href="t7.jpg" >
			
				<text transform="matrix(0.9397 -0.342 0.342 0.9397 1206.6946 70.5723)" fill="#0000FF" font-family="'Helvetica-BoldOblique'" font-size="8.8466">TEAM 7</text>
			
				<text transform="matrix(0.9397 -0.342 0.342 0.9397 1210.3245 80.5483)" fill="#0000FF" font-family="'Helvetica-BoldOblique'" font-size="8.8466">Jarred and Rain</text>
		</a>
	</g>
</g>
<g id="Make2D::visible::lines::Default">
	<g id="XMLID_5_">
		<g>
			<path fill="#0000FF" d="M220.95,436.832c5.294,1.899,10.91,5.841,10.846,12.407c-0.064,6.195-4.232,11.184-9.124,14.177
				c-5.278,3.251-10.637,4.57-16.703,5.069c-1.126,0.08-2.237,0.16-3.347,0.192l-0.129-3.54c1.191-0.048,2.398-0.161,3.637-0.306
				c8.126-0.997,18.216-5.857,18.232-15.689c0.016-4.988-3.621-7.949-7.836-9.414c-2.688-0.933-5.278-1.287-7.917-1.287
				l-0.048-3.588C212.743,434.82,216.782,435.335,220.95,436.832z"/>
			<path fill="#0000FF" d="M208.56,434.853l0.048,3.588c-1.657,0-3.347,0.145-5.084,0.37c-8.159,1.094-18.135,5.825-18.216,15.738
				c-0.064,5.021,3.459,7.965,7.804,9.365c3.17,1.014,6.228,1.319,9.381,1.223l0.129,3.54c-4.763,0.146-9.333-0.257-14.048-1.866
				c-5.841-1.979-10.813-5.149-10.685-12.262c0-6.211,4.087-11.216,8.996-14.241c5.262-3.25,10.62-4.634,16.67-5.182
				C205.245,434.965,206.918,434.869,208.56,434.853z"/>
		</g>
		<g>
			<path fill="none" stroke="#0000FF" d="M202.622,468.677c-4.763,0.146-9.333-0.257-14.048-1.866
				c-5.841-1.979-10.813-5.149-10.685-12.262c0-6.211,4.087-11.216,8.996-14.241c5.262-3.25,10.62-4.634,16.67-5.182
				c1.69-0.161,3.363-0.257,5.005-0.273c4.184-0.032,8.223,0.482,12.39,1.979c5.294,1.899,10.91,5.841,10.846,12.407
				c-0.064,6.195-4.232,11.184-9.124,14.177c-5.278,3.251-10.637,4.57-16.703,5.069
				C204.843,468.564,203.732,468.645,202.622,468.677z"/>
			<path fill="none" stroke="#0000FF" d="M208.608,438.441c-1.657,0-3.347,0.145-5.084,0.37
				c-8.159,1.094-18.135,5.825-18.216,15.738c-0.064,5.021,3.459,7.965,7.804,9.365c3.17,1.014,6.228,1.319,9.381,1.223
				c1.191-0.048,2.398-0.161,3.637-0.306c8.126-0.997,18.216-5.857,18.232-15.689c0.016-4.988-3.621-7.949-7.836-9.414
				C213.838,438.795,211.247,438.441,208.608,438.441z"/>
		</g>
	</g>
	<polygon fill="#0000FF" stroke="#0000FF" points="316.487,464.299 315.157,467.907 278.205,467.907 289.924,435.701 
		297.345,435.701 287.033,464.299 	"/>
	<polygon fill="#0000FF" stroke="#0000FF" points="243.594,464.299 273.048,464.299 271.72,467.907 234.766,467.907 
		246.485,435.701 253.907,435.701 	"/>
	<g id="XMLID_4_">
		<g>
			<path fill="#0000FF" d="M163.841,436.333c4.634,0.804,11.312,2.961,9.526,9.124c-1.48,5.068-8.271,6.662-12.358,7.192
				c3.75,0.66,6.501,2.833,5.696,7c-0.402,2.768-2.349,5.23,0,8.223c-2.559,0-5.101,0.017-7.659,0.017
				c-1.191-1.963-0.483-5.037,0.161-6.888c1.335-4.634-0.789-6.693-5.391-6.854c-6.485,0-12.97,0-19.455,0
				c-1.658,4.586-3.331,9.156-5.004,13.742c-2.462,0-4.94,0-7.418,0c3.942-10.733,7.869-21.466,11.795-32.2
				C138.642,435.689,158.901,435.48,163.841,436.333z M166.158,444.282c0.097-2.43-1.223-3.218-3.218-3.975
				c-2.526-0.95-5.021-0.998-7.627-1.014c-5.166,0-10.315,0-15.48,0c-1.384,3.749-2.752,7.499-4.136,11.231
				c5.149,0,10.315,0,15.48,0c3.492,0,11.94,0.032,14.338-4.119C165.901,445.73,166.126,445.071,166.158,444.282z"/>
		</g>
		<g>
			<path fill="none" stroke="#0000FF" d="M133.734,435.689c4.908,0,25.167-0.209,30.107,0.644c4.634,0.804,11.312,2.961,9.526,9.124
				c-1.48,5.068-8.271,6.662-12.358,7.192c3.75,0.66,6.501,2.833,5.696,7c-0.402,2.768-2.349,5.23,0,8.223
				c-2.559,0-5.101,0.017-7.659,0.017c-1.191-1.963-0.483-5.037,0.161-6.888c1.335-4.634-0.789-6.693-5.391-6.854
				c-6.485,0-12.97,0-19.455,0c-1.658,4.586-3.331,9.156-5.004,13.742c-2.462,0-4.94,0-7.418,0
				C125.881,457.155,129.807,446.422,133.734,435.689z"/>
			<path fill="none" stroke="#0000FF" d="M135.697,450.525c5.149,0,10.315,0,15.48,0c3.492,0,11.94,0.032,14.338-4.119
				c0.386-0.676,0.611-1.335,0.644-2.124c0.097-2.43-1.223-3.218-3.218-3.975c-2.526-0.95-5.021-0.998-7.627-1.014
				c-5.166,0-10.315,0-15.48,0C138.449,443.043,137.081,446.792,135.697,450.525z"/>
		</g>
	</g>
	<path fill="#0000FF" stroke="#0000FF" d="M116.558,457.038c-4.447,10.724-18.253,11.821-27.354,11.639
		c-5.499-0.109-10.349-1.179-15.234-3.831c-5.038-2.736-6.892-8.212-5.619-13.577c2.596-10.94,15.921-15.223,25.054-16.113
		c5.357-0.522,10.465-0.411,15.741,0.931c4.642,1.182,10.8,3.957,10.693,9.99c-2.474,0-4.948,0-7.422,0
		c0.028-4.735-4.087-6.083-7.724-6.939c-3.821-0.899-7.467-0.818-11.297-0.279c-6.918,0.972-15.381,4.591-17.546,12.386
		c-2.667,9.598,5.244,13.193,13.447,13.755c6.694,0.458,16.269-0.582,19.839-7.961C111.611,457.038,114.085,457.038,116.558,457.038
		z"/>
	<path fill="#0000FF" stroke="#0000FF" d="M54.917,445.219c0.344-4.309-3.813-5.824-7.191-6.317
		c-3.576-0.522-7.037-0.525-10.611,0.035c-1.775,0.277-3.46,0.669-5.095,1.475c-1.817,0.897-3.196,1.649-2.751,4.047
		c0.636,3.444,6.707,4.162,9.006,4.551c4.208,0.657,15.01,1.712,18.77,5.11c2.545,2.301,3.044,6.195,0.558,8.759
		c-2.494,2.576-5.393,3.54-8.672,4.391c-6.586,1.708-12.885,1.743-19.548,0.867c-3.305-0.436-6.404-1.023-9.389-2.73
		c-2.919-1.667-5.072-4.426-4.455-8.052c2.474,0,4.948,0,7.422,0c-0.234,2.092,0.352,3.434,1.904,4.812
		c0.658,0.584,1.386,0.986,2.185,1.33c0.27,0.116,0.543,0.221,0.819,0.319c0.598,0.209,1.204,0.38,1.821,0.52
		c1.432,0.327,2.874,0.489,4.334,0.598c4.338,0.324,10.676,0.288,14.81-1.98c0.416-0.229,0.81-0.484,1.183-0.777
		c0.176-0.138,0.344-0.284,0.506-0.437c1.221-1.155,1.665-2.183,1.116-3.858c-0.156-0.478-0.405-0.858-0.75-1.22
		c-0.481-0.502-1.027-0.864-1.642-1.176c-1.625-0.821-3.326-1.177-5.078-1.518c-4.942-0.963-9.979-1.239-14.862-2.699
		c-1.433-0.428-2.786-0.958-4.073-1.738c-0.551-0.334-1.061-0.705-1.534-1.142c-0.221-0.205-0.428-0.418-0.624-0.646
		c-0.126-0.146-0.247-0.296-0.359-0.454c-1.45-2.04-1.147-4.915,0.503-6.729c2.478-2.725,5.401-3.657,8.751-4.482
		c1.674-0.411,3.36-0.682,5.072-0.869c5.111-0.557,9.992-0.437,15.034,0.747c4.303,1.008,10.76,3.428,10.26,9.265
		C59.865,445.219,57.391,445.219,54.917,445.219z"/>
	<g>
		<g>
			<g>
				<line fill="none" stroke="#0000FF" stroke-width="0.5" x1="234.766" y1="467.907" x2="234.766" y2="468.907"/>
				
					<line fill="none" stroke="#0000FF" stroke-width="0.5" stroke-dasharray="2.0075,2.0075" x1="234.766" y1="470.915" x2="234.766" y2="919.585"/>
				<line fill="none" stroke="#0000FF" stroke-width="0.5" x1="234.766" y1="920.589" x2="234.766" y2="921.589"/>
			</g>
		</g>
		<g>
			<g>
				<path fill="none" stroke="#0000FF" stroke-width="0.5" d="M169.366,912.866c-0.002,0.339-0.023,0.672-0.063,0.999"/>
				<path fill="none" stroke="#0000FF" stroke-width="0.5" stroke-dasharray="1.9907,1.9907" d="M168.837,915.797
					c-0.91,2.503-2.887,4.535-5.11,5.906c-3.28,2.024-6.617,2.853-10.387,3.156c-3.722,0.299-7.209,0.196-10.823-1.028
					c-3.029-1.026-5.693-2.579-6.442-5.646"/>
				<path fill="none" stroke="#0000FF" stroke-width="0.5" d="M135.906,917.201c-0.032-0.318-0.046-0.651-0.041-0.999"/>
			</g>
		</g>
		<g>
			<g>
				<line fill="none" stroke="#0000FF" stroke-width="0.5" x1="135.866" y1="916.202" x2="135.866" y2="915.202"/>
				<line fill="none" stroke="#0000FF" stroke-width="0.5" x1="135.866" y1="914.823" x2="135.866" y2="913.823"/>
			</g>
		</g>
		<g>
			<g>
				<path fill="none" stroke="#0000FF" stroke-width="0.5" d="M133.195,909.587c-0.001,0.347-0.054,0.676-0.147,0.987"/>
				<path fill="none" stroke="#0000FF" stroke-width="0.5" stroke-dasharray="1.557,1.557" d="M132.313,911.938
					c-0.48,0.603-1.112,1.106-1.774,1.509"/>
				<path fill="none" stroke="#0000FF" stroke-width="0.5" d="M129.855,913.822c-0.311,0.154-0.62,0.287-0.916,0.396"/>
			</g>
		</g>
		<g>
			<g>
				<line fill="none" stroke="#0000FF" stroke-width="0.5" x1="128.971" y1="924.5" x2="127.971" y2="924.5"/>
				<line fill="none" stroke="#0000FF" stroke-width="0.5" x1="125.165" y1="924.5" x2="124.165" y2="924.5"/>
			</g>
		</g>
		<g>
			<g>
				<line fill="none" stroke="#0000FF" stroke-width="0.5" x1="108.823" y1="915.95" x2="108.481" y2="916.89"/>
				
					<line fill="none" stroke="#0000FF" stroke-width="0.5" stroke-dasharray="2.3657,2.3657" x1="107.673" y1="919.113" x2="106.461" y2="922.448"/>
				<line fill="none" stroke="#0000FF" stroke-width="0.5" x1="106.057" y1="923.561" x2="105.715" y2="924.5"/>
			</g>
		</g>
		<g>
			<g>
				<line fill="none" stroke="#0000FF" stroke-width="0.5" x1="105.715" y1="924.5" x2="104.715" y2="924.5"/>
				<line fill="none" stroke="#0000FF" stroke-width="0.5" x1="102.102" y1="924.5" x2="101.102" y2="924.5"/>
			</g>
		</g>
		<g>
			<g>
				<line fill="none" stroke="#0000FF" stroke-width="0.5" x1="166.795" y1="467.911" x2="166.795" y2="468.911"/>
				
					<line fill="none" stroke="#0000FF" stroke-width="0.5" stroke-dasharray="2.0075,2.0075" x1="166.795" y1="470.919" x2="166.795" y2="919.585"/>
				<line fill="none" stroke="#0000FF" stroke-width="0.5" x1="166.795" y1="920.589" x2="166.795" y2="921.589"/>
			</g>
		</g>
		<g>
			<g>
				<line fill="none" stroke="#0000FF" stroke-width="0.5" x1="159.06" y1="467.907" x2="159.06" y2="468.907"/>
				
					<line fill="none" stroke="#0000FF" stroke-width="0.5" stroke-dasharray="2.0075,2.0075" x1="159.06" y1="470.915" x2="159.06" y2="919.585"/>
				<line fill="none" stroke="#0000FF" stroke-width="0.5" x1="159.06" y1="920.589" x2="159.06" y2="921.589"/>
			</g>
		</g>
		<g>
			<g>
				<line fill="none" stroke="#0000FF" stroke-width="0.5" x1="134.372" y1="454.151" x2="134.372" y2="455.151"/>
				
					<line fill="none" stroke="#0000FF" stroke-width="0.5" stroke-dasharray="2.0075,2.0075" x1="134.372" y1="457.159" x2="134.372" y2="905.826"/>
				<line fill="none" stroke="#0000FF" stroke-width="0.5" x1="134.372" y1="906.83" x2="134.372" y2="907.83"/>
			</g>
		</g>
		<g>
			<g>
				<line fill="none" stroke="#0000FF" stroke-width="0.5" x1="129.372" y1="467.907" x2="129.372" y2="468.907"/>
				
					<line fill="none" stroke="#0000FF" stroke-width="0.5" stroke-dasharray="2.0075,2.0075" x1="129.372" y1="470.915" x2="129.372" y2="919.585"/>
				<line fill="none" stroke="#0000FF" stroke-width="0.5" x1="129.372" y1="920.589" x2="129.372" y2="921.589"/>
			</g>
		</g>
		<g>
			<g>
				<line fill="none" stroke="#0000FF" stroke-width="0.5" x1="121.949" y1="467.907" x2="121.949" y2="468.907"/>
				
					<line fill="none" stroke="#0000FF" stroke-width="0.5" stroke-dasharray="2.0075,2.0075" x1="121.949" y1="470.915" x2="121.949" y2="919.585"/>
				<line fill="none" stroke="#0000FF" stroke-width="0.5" x1="121.949" y1="920.589" x2="121.949" y2="921.589"/>
			</g>
		</g>
		<g>
			<g>
				<line fill="none" stroke="#0000FF" stroke-width="0.5" x1="139.841" y1="439.31" x2="139.841" y2="440.31"/>
				
					<line fill="none" stroke="#0000FF" stroke-width="0.5" stroke-dasharray="1.8467,1.8467" x1="139.841" y1="442.156" x2="139.841" y2="448.62"/>
				<line fill="none" stroke="#0000FF" stroke-width="0.5" x1="139.841" y1="449.543" x2="139.841" y2="450.543"/>
			</g>
		</g>
		<g>
			<g>
				<path fill="none" stroke="#0000FF" stroke-width="0.5" d="M97.752,917.744c-0.131,0.315-0.274,0.618-0.428,0.906"/>
				<path fill="none" stroke="#0000FF" stroke-width="0.5" stroke-dasharray="2.0744,2.0744" d="M96.156,920.364
					c-3.457,4.045-9.724,4.484-14.375,4.61c-3.224,0.087-6.127-0.463-9.096-1.723c-2.412-1.023-4.268-2.631-4.899-5.03"/>
				<path fill="none" stroke="#0000FF" stroke-width="0.5" d="M67.598,917.204c-0.035-0.321-0.051-0.655-0.045-1.002"/>
			</g>
		</g>
		<g>
			<g>
				<line fill="none" stroke="#0000FF" stroke-width="0.5" x1="99.792" y1="910.933" x2="98.792" y2="910.933"/>
				<line fill="none" stroke="#0000FF" stroke-width="0.5" x1="98.752" y1="910.933" x2="97.752" y2="910.933"/>
			</g>
		</g>
		<g>
			<g>
				<line fill="none" stroke="#0000FF" stroke-width="0.5" x1="116.558" y1="910.717" x2="116.558" y2="909.717"/>
				
					<line fill="none" stroke="#0000FF" stroke-width="0.5" stroke-dasharray="2.0075,2.0075" x1="116.558" y1="907.709" x2="116.558" y2="459.042"/>
				<line fill="none" stroke="#0000FF" stroke-width="0.5" x1="116.558" y1="458.038" x2="116.558" y2="457.038"/>
			</g>
		</g>
		<g>
			<g>
				<line fill="none" stroke="#0000FF" stroke-width="0.5" x1="119.84" y1="446.076" x2="119.84" y2="447.076"/>
				
					<line fill="none" stroke="#0000FF" stroke-width="0.5" stroke-dasharray="2.0075,2.0075" x1="119.84" y1="449.083" x2="119.84" y2="897.752"/>
				<line fill="none" stroke="#0000FF" stroke-width="0.5" x1="119.84" y1="898.756" x2="119.84" y2="899.756"/>
			</g>
		</g>
		<g>
			<g>
				<line fill="none" stroke="#0000FF" stroke-width="0.5" x1="112.418" y1="446.076" x2="112.418" y2="447.076"/>
				
					<line fill="none" stroke="#0000FF" stroke-width="0.5" stroke-dasharray="1.7924,1.7924" x1="112.418" y1="448.869" x2="112.418" y2="455.142"/>
				<line fill="none" stroke="#0000FF" stroke-width="0.5" x1="112.418" y1="456.038" x2="112.418" y2="457.038"/>
			</g>
		</g>
		<g>
			<g>
				<path fill="none" stroke="#0000FF" stroke-width="0.5" d="M62.115,918.894c0.001,0.35-0.05,0.679-0.144,0.987"/>
				<path fill="none" stroke="#0000FF" stroke-width="0.5" stroke-dasharray="2.0371,2.0371" d="M60.89,921.58
					c-1.24,1.211-3.157,1.938-4.477,2.331c-2.661,0.793-5.298,1.052-8.052,1.036c-2.741-0.015-5.393-0.162-8.061-0.971
					c-1.805-0.546-4.009-1.536-4.934-3.347"/>
				<path fill="none" stroke="#0000FF" stroke-width="0.5" d="M35.022,919.67c-0.069-0.312-0.103-0.645-0.096-0.997"/>
			</g>
		</g>
		<g>
			
				<line fill="none" stroke="#0000FF" stroke-width="0.5" stroke-dasharray="1.9419" x1="64.057" y1="910.399" x2="62.115" y2="910.399"/>
		</g>
		<g>
			<g>
				<line fill="none" stroke="#0000FF" stroke-width="0.5" x1="54.917" y1="452.695" x2="54.917" y2="451.695"/>
				
					<line fill="none" stroke="#0000FF" stroke-width="0.5" stroke-dasharray="1.8255,1.8255" x1="54.917" y1="449.87" x2="54.917" y2="447.131"/>
				<line fill="none" stroke="#0000FF" stroke-width="0.5" x1="54.917" y1="446.219" x2="54.917" y2="445.219"/>
			</g>
		</g>
		<g>
			<g>
				<line fill="none" stroke="#0000FF" stroke-width="0.5" x1="62.339" y1="445.219" x2="62.339" y2="446.219"/>
				
					<line fill="none" stroke="#0000FF" stroke-width="0.5" stroke-dasharray="2.0075,2.0075" x1="62.339" y1="448.226" x2="62.339" y2="896.894"/>
				<line fill="none" stroke="#0000FF" stroke-width="0.5" x1="62.339" y1="897.897" x2="62.339" y2="898.897"/>
			</g>
		</g>
		<g>
			<g>
				<line fill="none" stroke="#0000FF" stroke-width="0.5" x1="173.592" y1="897.591" x2="173.592" y2="896.591"/>
				
					<line fill="none" stroke="#0000FF" stroke-width="0.5" stroke-dasharray="2.0075,2.0075" x1="173.592" y1="894.583" x2="173.592" y2="445.915"/>
				<line fill="none" stroke="#0000FF" stroke-width="0.5" x1="173.592" y1="444.911" x2="173.592" y2="443.911"/>
			</g>
		</g>
		<g>
			<g>
				<line fill="none" stroke="#0000FF" stroke-width="0.5" x1="15.46" y1="912.211" x2="15.46" y2="911.211"/>
				
					<line fill="none" stroke="#0000FF" stroke-width="0.5" stroke-dasharray="2.0004,2.0004" x1="15.46" y1="909.211" x2="15.46" y2="462.122"/>
				<line fill="none" stroke="#0000FF" stroke-width="0.5" x1="15.46" y1="461.122" x2="15.46" y2="460.122"/>
			</g>
		</g>
		<g>
			<g>
				<line fill="none" stroke="#0000FF" stroke-width="0.5" x1="21.79" y1="457.354" x2="21.79" y2="456.354"/>
				
					<line fill="none" stroke="#0000FF" stroke-width="0.5" stroke-dasharray="1.8792,1.8792" x1="21.79" y1="454.475" x2="21.79" y2="447.897"/>
				<line fill="none" stroke="#0000FF" stroke-width="0.5" x1="21.79" y1="446.958" x2="21.79" y2="445.958"/>
			</g>
		</g>
		<g>
			<g>
				<line fill="none" stroke="#0000FF" stroke-width="0.5" x1="177.889" y1="904.407" x2="177.889" y2="903.407"/>
				
					<line fill="none" stroke="#0000FF" stroke-width="0.5" stroke-dasharray="2.0083,2.0083" x1="177.889" y1="901.398" x2="177.889" y2="456.56"/>
				<line fill="none" stroke="#0000FF" stroke-width="0.5" x1="177.889" y1="455.556" x2="177.889" y2="454.556"/>
			</g>
		</g>
		<g>
			<g>
				<line fill="none" stroke="#0000FF" stroke-width="0.5" x1="231.797" y1="902.868" x2="231.797" y2="901.868"/>
				
					<line fill="none" stroke="#0000FF" stroke-width="0.5" stroke-dasharray="2.0075,2.0075" x1="231.797" y1="899.86" x2="231.797" y2="451.191"/>
				<line fill="none" stroke="#0000FF" stroke-width="0.5" x1="231.797" y1="450.188" x2="231.797" y2="449.188"/>
			</g>
		</g>
		<g>
			<g>
				<line fill="none" stroke="#0000FF" stroke-width="0.5" x1="59.214" y1="912.566" x2="59.214" y2="911.566"/>
				
					<line fill="none" stroke="#0000FF" stroke-width="0.5" stroke-dasharray="2.0075,2.0075" x1="59.214" y1="909.559" x2="59.214" y2="460.892"/>
				<line fill="none" stroke="#0000FF" stroke-width="0.5" x1="59.214" y1="459.888" x2="59.214" y2="458.888"/>
			</g>
		</g>
		<g>
			<g>
				<line fill="none" stroke="#0000FF" stroke-width="0.5" x1="67.964" y1="908.235" x2="67.964" y2="907.235"/>
				
					<line fill="none" stroke="#0000FF" stroke-width="0.5" stroke-dasharray="2.0058,2.0058" x1="67.964" y1="905.229" x2="67.964" y2="456.935"/>
				<line fill="none" stroke="#0000FF" stroke-width="0.5" x1="67.964" y1="455.932" x2="67.964" y2="454.932"/>
			</g>
		</g>
		<g>
			<g>
				<line fill="none" stroke="#0000FF" stroke-width="0.5" x1="124.165" y1="915.95" x2="123.165" y2="915.95"/>
				
					<line fill="none" stroke="#0000FF" stroke-width="0.5" stroke-dasharray="1.906,1.906" x1="121.259" y1="915.95" x2="110.776" y2="915.95"/>
				<line fill="none" stroke="#0000FF" stroke-width="0.5" x1="109.823" y1="915.95" x2="108.823" y2="915.95"/>
			</g>
		</g>
		<g>
			<g>
				<line fill="none" stroke="#0000FF" stroke-width="0.5" x1="221.997" y1="922.257" x2="221.651" y2="923.195"/>
				<line fill="none" stroke="#0000FF" stroke-width="0.5" x1="221.516" y1="923.562" x2="221.171" y2="924.5"/>
			</g>
		</g>
		<g>
			<g>
				<line fill="none" stroke="#0000FF" stroke-width="0.5" x1="221.171" y1="924.5" x2="220.171" y2="924.5"/>
				
					<line fill="none" stroke="#0000FF" stroke-width="0.5" stroke-dasharray="1.9059,1.9059" x1="218.265" y1="924.5" x2="200.159" y2="924.5"/>
				<line fill="none" stroke="#0000FF" stroke-width="0.5" x1="199.206" y1="924.5" x2="198.206" y2="924.5"/>
			</g>
		</g>
		<g>
			<g>
				<line fill="none" stroke="#0000FF" stroke-width="0.5" x1="297.345" y1="435.701" x2="297.345" y2="436.701"/>
				
					<line fill="none" stroke="#0000FF" stroke-width="0.5" stroke-dasharray="2.046,2.046" x1="297.345" y1="438.747" x2="297.345" y2="462.275"/>
				<line fill="none" stroke="#0000FF" stroke-width="0.5" x1="297.345" y1="463.299" x2="297.345" y2="464.299"/>
			</g>
		</g>
		<g>
			<g>
				<line fill="none" stroke="#0000FF" stroke-width="0.5" x1="316.487" y1="464.299" x2="316.487" y2="465.299"/>
				
					<line fill="none" stroke="#0000FF" stroke-width="0.5" stroke-dasharray="2.0075,2.0075" x1="316.487" y1="467.307" x2="316.487" y2="915.976"/>
				<line fill="none" stroke="#0000FF" stroke-width="0.5" x1="316.487" y1="916.979" x2="316.487" y2="917.979"/>
			</g>
		</g>
		<g>
			<g>
				<line fill="none" stroke="#0000FF" stroke-width="0.5" x1="315.157" y1="467.907" x2="315.157" y2="468.907"/>
				
					<line fill="none" stroke="#0000FF" stroke-width="0.5" stroke-dasharray="2.0075,2.0075" x1="315.157" y1="470.915" x2="315.157" y2="919.585"/>
				<line fill="none" stroke="#0000FF" stroke-width="0.5" x1="315.157" y1="920.589" x2="315.157" y2="921.589"/>
			</g>
		</g>
		<g>
			<g>
				<line fill="none" stroke="#0000FF" stroke-width="0.5" x1="278.205" y1="467.907" x2="278.205" y2="468.907"/>
				
					<line fill="none" stroke="#0000FF" stroke-width="0.5" stroke-dasharray="2.0075,2.0075" x1="278.205" y1="470.915" x2="278.205" y2="919.585"/>
				<line fill="none" stroke="#0000FF" stroke-width="0.5" x1="278.205" y1="920.589" x2="278.205" y2="921.589"/>
			</g>
		</g>
		<g>
			<g>
				<line fill="none" stroke="#0000FF" stroke-width="0.5" x1="195.002" y1="922.257" x2="194.656" y2="923.195"/>
				<line fill="none" stroke="#0000FF" stroke-width="0.5" x1="194.522" y1="923.562" x2="194.177" y2="924.5"/>
			</g>
		</g>
		<g>
			<g>
				<line fill="none" stroke="#0000FF" stroke-width="0.5" x1="194.177" y1="924.5" x2="193.177" y2="924.5"/>
				
					<line fill="none" stroke="#0000FF" stroke-width="0.5" stroke-dasharray="1.9059,1.9059" x1="191.271" y1="924.5" x2="173.165" y2="924.5"/>
				<line fill="none" stroke="#0000FF" stroke-width="0.5" x1="172.212" y1="924.5" x2="171.212" y2="924.5"/>
			</g>
		</g>
		<g>
			<g>
				<line fill="none" stroke="#0000FF" stroke-width="0.5" x1="253.907" y1="435.701" x2="253.907" y2="436.701"/>
				
					<line fill="none" stroke="#0000FF" stroke-width="0.5" stroke-dasharray="2.046,2.046" x1="253.907" y1="438.747" x2="253.907" y2="462.275"/>
				<line fill="none" stroke="#0000FF" stroke-width="0.5" x1="253.907" y1="463.299" x2="253.907" y2="464.299"/>
			</g>
		</g>
		<g>
			<g>
				<line fill="none" stroke="#0000FF" stroke-width="0.5" x1="273.048" y1="464.299" x2="273.048" y2="465.299"/>
				
					<line fill="none" stroke="#0000FF" stroke-width="0.5" stroke-dasharray="2.0075,2.0075" x1="273.048" y1="467.307" x2="273.048" y2="915.976"/>
				<line fill="none" stroke="#0000FF" stroke-width="0.5" x1="273.048" y1="916.979" x2="273.048" y2="917.979"/>
			</g>
		</g>
		<g>
			<g>
				<line fill="none" stroke="#0000FF" stroke-width="0.5" x1="271.72" y1="467.907" x2="271.72" y2="468.907"/>
				
					<line fill="none" stroke="#0000FF" stroke-width="0.5" stroke-dasharray="2.0075,2.0075" x1="271.72" y1="470.915" x2="271.72" y2="919.585"/>
				<line fill="none" stroke="#0000FF" stroke-width="0.5" x1="271.72" y1="920.589" x2="271.72" y2="921.589"/>
			</g>
		</g>
	</g>
</g>
<g id="Make2D::visible::lines::OPS-CONS::OPTION1">
	<g id="XMLID_3_">
		<g>
			<path fill="#0000FF" d="M425.194,493.391l-94.723,27.342l-3.788-4.378l64.407-18.586c0.885-0.105,1.605-0.365,2.277-0.813
				c0.271-0.166,0.52-0.378,0.779-0.614c0.46-0.437,1.782-2.159,1.629-2.95c-0.449-2.312-2.337-4.083-4.673-4.378h-0.012
				l-64.407-18.598l3.788-4.366L425.194,493.391z"/>
			<polygon fill="#00FF00" points="425.194,493.391 425.194,500.306 330.471,527.647 330.471,520.732 			"/>
			<path fill="#00FF00" d="M391.091,495.928l-64.407-18.586v-6.927l64.407,18.598h0.012c2.336,0.295,4.225,2.065,4.673,4.378
				c0.153,0.791-1.168,2.514-1.629,2.95c-0.259,0.236-0.507,0.448-0.779,0.614l-0.071-0.106
				C392.601,496.447,391.869,496.152,391.091,495.928z"/>
			<rect x="-0.003" y="495.834" fill="#00FF00" width="347.868" height="6.915"/>
			<rect x="-0.003" y="490.948" fill="#0000FF" width="347.868" height="4.886"/>
			<polygon fill="#00FF00" points="330.471,520.732 330.471,527.647 326.683,523.281 326.683,516.354 			"/>
		</g>
		<g>
			<line fill="none" stroke="#0000FF" stroke-linecap="round" x1="-0.003" y1="495.834" x2="-0.003" y2="490.948"/>
			<line fill="none" stroke="#0000FF" stroke-linecap="round" x1="-0.003" y1="502.749" x2="-0.003" y2="495.834"/>
			<line fill="none" stroke="#0000FF" stroke-linecap="round" x1="347.865" y1="502.749" x2="-0.003" y2="502.749"/>
			<line fill="none" stroke="#0000FF" stroke-linecap="round" x1="347.865" y1="490.948" x2="347.865" y2="495.834"/>
			<line fill="none" stroke="#0000FF" stroke-linecap="round" x1="347.865" y1="502.749" x2="347.865" y2="495.834"/>
			<line fill="none" stroke="#0000FF" stroke-linecap="round" x1="-0.003" y1="490.948" x2="347.865" y2="490.948"/>
			<line fill="none" stroke="#0000FF" stroke-linecap="round" x1="326.683" y1="470.415" x2="330.471" y2="466.049"/>
			<line fill="none" stroke="#0000FF" stroke-linecap="round" x1="391.091" y1="489.013" x2="326.683" y2="470.415"/>
			<line fill="none" stroke="#0000FF" stroke-linecap="round" x1="326.683" y1="477.342" x2="326.683" y2="470.415"/>
			<line fill="none" stroke="#0000FF" stroke-linecap="round" x1="391.091" y1="495.928" x2="326.683" y2="477.342"/>
			<path fill="none" stroke="#0000FF" stroke-linecap="round" d="M391.091,497.769c0.885-0.105,1.605-0.365,2.277-0.813
				c0.271-0.166,0.52-0.378,0.779-0.614c0.46-0.437,1.782-2.159,1.629-2.95c-0.449-2.312-2.337-4.083-4.673-4.378"/>
			<path fill="none" stroke="#0000FF" stroke-linecap="round" d="M393.297,496.849c-0.696-0.401-1.428-0.696-2.207-0.921"/>
			<line fill="none" stroke="#0000FF" stroke-linecap="round" x1="326.683" y1="516.354" x2="391.091" y2="497.769"/>
			<line fill="none" stroke="#0000FF" stroke-linecap="round" x1="330.471" y1="520.732" x2="326.683" y2="516.354"/>
			<line fill="none" stroke="#0000FF" stroke-linecap="round" x1="326.683" y1="523.281" x2="326.683" y2="516.354"/>
			<line fill="none" stroke="#0000FF" stroke-linecap="round" x1="330.471" y1="527.647" x2="326.683" y2="523.281"/>
			<line fill="none" stroke="#0000FF" stroke-linecap="round" x1="425.194" y1="493.391" x2="330.471" y2="520.732"/>
			<line fill="none" stroke="#0000FF" stroke-linecap="round" x1="330.471" y1="527.647" x2="330.471" y2="520.732"/>
			<line fill="none" stroke="#0000FF" stroke-linecap="round" x1="425.194" y1="500.306" x2="330.471" y2="527.647"/>
			<line fill="none" stroke="#0000FF" stroke-linecap="round" x1="330.471" y1="466.049" x2="425.194" y2="493.391"/>
			<line fill="none" stroke="#0000FF" stroke-linecap="round" x1="425.194" y1="500.306" x2="425.194" y2="493.391"/>
			<line fill="none" stroke="#0000FF" stroke-linecap="round" x1="347.865" y1="495.834" x2="-0.003" y2="495.834"/>
		</g>
	</g>
</g>
</svg>
