<?xml version="1.0" encoding="utf-8"?>
<!-- Generator: Adobe Illustrator 16.0.0, SVG Export Plug-In . SVG Version: 6.00 Build 0)  -->
<!DOCTYPE svg PUBLIC "-//W3C//DTD SVG 1.1//EN" "http://www.w3.org/Graphics/SVG/1.1/DTD/svg11.dtd">
<svg version="1.1" xmlns="http://www.w3.org/2000/svg" xmlns:xlink="http://www.w3.org/1999/xlink" x="0px" y="0px" width="1600px"
	 height="900px" viewBox="0 0 1600 900" enable-background="new 0 0 1600 900" xml:space="preserve">
<g id="Layer_2">
	<g>
		<text transform="matrix(0.9397 -0.342 0.342 0.9397 428.7112 257.7051)"><tspan x="0" y="0" fill="#0000FF" font-family="'Helvetica-BoldOblique'" font-size="8.8466">TEAM 1</tspan><tspan x="0" y="10.616" fill="#0000FF" font-family="'Helvetica-BoldOblique'" font-size="8.8466">Mac, Olive and Chelsea</tspan></text>
		<g>
			<path fill="none" stroke="#0000FF" stroke-width="0.5898" stroke-miterlimit="10" d="M537.411,489.472l109.053-39.691
				 M566.464,229.98l-40.562-23.357c-1.893-1.089-4.171-1.285-6.223-0.539l-100.374,36.533c-3.838,1.393-5.816,5.636-4.42,9.474
				c0,0,0,0,0.001,0.002L493.9,469.181"/>
		</g>
		<path fill="none" stroke="#0000FF" stroke-width="0.5898" stroke-miterlimit="10" d="M566.464,229.98l80,219.8L566.464,229.98z"/>
	</g>
	<g>
		<text transform="matrix(0.9397 -0.342 0.342 0.9397 707.1692 130.6025)"><tspan x="0" y="0" fill="#0000FF" font-family="'Helvetica-BoldOblique'" font-size="8.8466">TEAM 3</tspan><tspan x="0" y="10.616" fill="#0000FF" font-family="'Helvetica-BoldOblique'" font-size="8.8466">Nikita and Bella</tspan></text>
		<g>
			<path fill="none" stroke="#0000FF" stroke-width="0.5898" stroke-miterlimit="10" d="M815.869,362.369l109.053-39.691
				 M844.922,102.877L804.359,79.52c-1.893-1.089-4.171-1.285-6.223-0.539l-100.374,36.533c-3.838,1.393-5.816,5.636-4.42,9.474
				c0,0,0,0,0.001,0.002l79.014,217.087"/>
		</g>
		<path fill="none" stroke="#0000FF" stroke-width="0.5898" stroke-miterlimit="10" d="M844.922,102.877l80,219.8L844.922,102.877z"
			/>
	</g>
	<g>
		<text transform="matrix(0.9397 -0.342 0.342 0.9397 973.1565 125.7881)"><tspan x="0" y="0" fill="#0000FF" font-family="'Helvetica-BoldOblique'" font-size="8.8466">TEAM 5</tspan><tspan x="0" y="10.616" fill="#0000FF" font-family="'Helvetica-BoldOblique'" font-size="8.8466">Nikita and Bella</tspan></text>
		<g>
			<path fill="none" stroke="#0000FF" stroke-width="0.5898" stroke-miterlimit="10" d="M1081.857,357.555l109.053-39.691
				 M1110.909,98.063l-40.562-23.357c-1.893-1.089-4.171-1.285-6.223-0.539L963.75,110.7c-3.838,1.393-5.816,5.636-4.42,9.474
				c0,0,0,0,0.001,0.002l79.014,217.087"/>
		</g>
		<path fill="none" stroke="#0000FF" stroke-width="0.5898" stroke-miterlimit="10" d="M1110.909,98.063l80,219.8L1110.909,98.063z"
			/>
	</g>
	<g>
		<text transform="matrix(0.9397 -0.342 0.342 0.9397 1206.6946 70.5723)"><tspan x="0" y="0" fill="#0000FF" font-family="'Helvetica-BoldOblique'" font-size="8.8466">TEAM 7</tspan><tspan x="0" y="10.616" fill="#0000FF" font-family="'Helvetica-BoldOblique'" font-size="8.8466">Jarred and Rain</tspan></text>
		<g>
			<path fill="none" stroke="#0000FF" stroke-width="0.5898" stroke-miterlimit="10" d="M1315.395,302.339l109.053-39.691
				 M1344.448,42.847l-40.562-23.357c-1.893-1.089-4.171-1.285-6.223-0.539l-100.374,36.533c-3.838,1.393-5.816,5.636-4.42,9.474
				c0,0,0,0,0.001,0.002l79.014,217.087"/>
		</g>
		
			<line fill="none" stroke="#0000FF" stroke-width="0.5898" stroke-miterlimit="10" x1="1344.448" y1="42.847" x2="1380.927" y2="143.074"/>
		<path fill="none" stroke="#0000FF" stroke-width="0.5898" stroke-miterlimit="10" d="M1380.927,143.074"/>
	</g>
	<g>
		<text transform="matrix(0.9397 -0.342 0.342 0.9397 865.4548 844.0098)"><tspan x="0" y="0" fill="#0000FF" font-family="'Helvetica-BoldOblique'" font-size="8.8466">TEAM 2</tspan><tspan x="0" y="10.617" fill="#0000FF" font-family="'Helvetica-BoldOblique'" font-size="8.8466">Deniz and Jess</tspan></text>
		<g>
			<path fill="none" stroke="#0000FF" stroke-width="0.5898" stroke-miterlimit="10" d="M858.961,582.774l-109.053,39.692
				 M829.908,842.265l40.562,23.357c1.893,1.09,4.171,1.285,6.223,0.539l100.374-36.533c3.838-1.393,5.816-5.635,4.42-9.473
				c0,0,0,0-0.001-0.004l-79.014-217.086"/>
		</g>
		<path fill="none" stroke="#0000FF" stroke-width="0.5898" stroke-miterlimit="10" d="M829.908,842.265l-80-219.799
			L829.908,842.265z"/>
	</g>
	<g>
		<text transform="matrix(0.9397 -0.342 0.342 0.9397 1116.4426 818.8809)"><tspan x="0" y="0" fill="#0000FF" font-family="'Helvetica-BoldOblique'" font-size="8.8466">TEAM 4</tspan><tspan x="0" y="10.615" fill="#0000FF" font-family="'Helvetica-BoldOblique'" font-size="8.8466">Callum and Rose</tspan></text>
		<g>
			<path fill="none" stroke="#0000FF" stroke-width="0.5898" stroke-miterlimit="10" d="M1109.948,557.644l-109.053,39.691
				 M1080.896,817.135l40.562,23.357c1.893,1.09,4.171,1.285,6.223,0.539l100.374-36.533c3.838-1.393,5.816-5.635,4.42-9.473
				c0,0,0,0-0.001-0.004l-79.014-217.086"/>
		</g>
		<path fill="none" stroke="#0000FF" stroke-width="0.5898" stroke-miterlimit="10" d="M1080.896,817.135l-80-219.8
			L1080.896,817.135z"/>
	</g>
	<g>
		<text transform="matrix(0.9397 -0.342 0.342 0.9397 1328.9661 689.9707)"><tspan x="0" y="0" fill="#0000FF" font-family="'Helvetica-BoldOblique'" font-size="8.8466">TEAM 6</tspan><tspan x="0" y="10.617" fill="#0000FF" font-family="'Helvetica-BoldOblique'" font-size="8.8466">Norah and Sylvia</tspan></text>
		<g>
			<path fill="none" stroke="#0000FF" stroke-width="0.5898" stroke-miterlimit="10" d="M1322.472,428.735l-109.053,39.691
				 M1293.419,688.226l40.562,23.357c1.893,1.09,4.171,1.285,6.223,0.539l100.374-36.533c3.838-1.393,5.816-5.635,4.42-9.473
				c0,0,0,0-0.001-0.004l-79.014-217.086"/>
		</g>
		<path fill="none" stroke="#0000FF" stroke-width="0.5898" stroke-miterlimit="10" d="M1293.419,688.226l-80-219.799
			L1293.419,688.226z"/>
	</g>
</g>
<g id="FM">
	
		<image overflow="visible" width="4649" height="3187" xlink:href="COMPILEDFASSLERMAP.png"  transform="matrix(0.251 0 0 0.251 400.0002 81.4956)">
	</image>
</g>
<g id="NORTH_POINT">
	<g>
		<polyline fill="none" stroke="#0000FF" stroke-width="2.1167" stroke-linejoin="round" stroke-miterlimit="10" points="
			1542.987,802.148 1550,790 1550,819.551 		"/>
		<polyline fill="none" stroke="#0000FF" stroke-width="2.1167" stroke-linejoin="round" stroke-miterlimit="10" points="
			1535.224,850 1535.224,824.409 1550,850 1550,824.409 		"/>
	</g>
</g>
<g id="Layer_1">
	<polyline fill="none" stroke="#0000FF" stroke-width="5.0943" stroke-miterlimit="10" points="53.554,28.644 53.554,53.554 
		28.644,53.554 	"/>
	<path fill="#0000FF" d="M23.82,32.845c0.199,0.385,0.465,0.697,0.798,0.937c0.332,0.239,0.721,0.415,1.169,0.532
		c0.446,0.116,0.909,0.176,1.388,0.176c0.324,0,0.671-0.028,1.041-0.083c0.371-0.054,0.719-0.157,1.042-0.312
		s0.594-0.368,0.809-0.637c0.218-0.271,0.325-0.612,0.325-1.029c0-0.45-0.144-0.809-0.428-1.088
		c-0.286-0.277-0.66-0.507-1.123-0.695c-0.463-0.187-0.988-0.348-1.574-0.486c-0.586-0.14-1.181-0.292-1.784-0.463
		c-0.615-0.154-1.218-0.343-1.805-0.567c-0.585-0.223-1.109-0.512-1.574-0.866c-0.461-0.355-0.836-0.799-1.122-1.333
		c-0.285-0.531-0.427-1.177-0.427-1.932c0-0.849,0.181-1.585,0.543-2.21c0.361-0.625,0.836-1.146,1.422-1.563
		c0.587-0.417,1.25-0.723,1.991-0.925c0.742-0.2,1.48-0.3,2.221-0.3c0.865,0,1.693,0.096,2.489,0.289
		c0.794,0.193,1.501,0.506,2.118,0.937c0.616,0.433,1.106,0.984,1.471,1.656c0.361,0.67,0.542,1.484,0.542,2.44h-3.517
		c-0.03-0.492-0.135-0.902-0.312-1.225c-0.178-0.325-0.413-0.581-0.707-0.764c-0.293-0.187-0.627-0.316-1.006-0.395
		c-0.378-0.076-0.792-0.116-1.239-0.116c-0.292,0-0.585,0.031-0.878,0.094c-0.293,0.062-0.56,0.169-0.798,0.324
		c-0.241,0.155-0.437,0.347-0.591,0.579c-0.153,0.231-0.23,0.524-0.23,0.878c0,0.324,0.062,0.588,0.185,0.787
		c0.123,0.202,0.367,0.386,0.729,0.557c0.363,0.171,0.864,0.339,1.505,0.509c0.64,0.169,1.477,0.386,2.511,0.648
		c0.308,0.061,0.737,0.172,1.284,0.336c0.548,0.162,1.092,0.42,1.631,0.775c0.541,0.355,1.008,0.828,1.399,1.423
		c0.395,0.592,0.591,1.354,0.591,2.279c0,0.755-0.146,1.457-0.438,2.105c-0.294,0.646-0.729,1.207-1.308,1.679
		c-0.58,0.469-1.297,0.837-2.152,1.098c-0.858,0.264-1.848,0.394-2.975,0.394c-0.911,0-1.794-0.113-2.65-0.337
		c-0.856-0.222-1.612-0.571-2.267-1.051c-0.657-0.478-1.177-1.089-1.562-1.83c-0.386-0.74-0.573-1.618-0.556-2.638h3.517
		C23.518,31.987,23.619,32.458,23.82,32.845"/>
	<polyline fill="none" stroke="#0000FF" stroke-width="5.0943" stroke-miterlimit="10" points="516.446,811.357 516.446,786.447 
		541.355,786.447 	"/>
	<path fill="#0000FF" d="M539.91,815.559c0.2,0.386,0.465,0.694,0.799,0.936c0.331,0.238,0.719,0.413,1.168,0.533
		c0.447,0.115,0.909,0.173,1.388,0.173c0.324,0,0.672-0.028,1.042-0.082c0.372-0.056,0.717-0.157,1.039-0.312
		c0.325-0.155,0.597-0.368,0.811-0.637c0.217-0.271,0.324-0.61,0.324-1.028c0-0.448-0.143-0.811-0.426-1.089
		c-0.285-0.276-0.661-0.507-1.121-0.692c-0.466-0.188-0.99-0.348-1.576-0.487c-0.585-0.14-1.18-0.293-1.782-0.464
		c-0.616-0.155-1.219-0.344-1.805-0.567c-0.586-0.221-1.11-0.511-1.575-0.867c-0.462-0.354-0.836-0.798-1.122-1.331
		c-0.283-0.531-0.426-1.177-0.426-1.933c0-0.848,0.182-1.584,0.543-2.209c0.362-0.627,0.836-1.146,1.423-1.562
		c0.587-0.418,1.25-0.725,1.99-0.928c0.741-0.201,1.479-0.301,2.221-0.301c0.864,0,1.694,0.098,2.486,0.289
		c0.797,0.195,1.504,0.507,2.12,0.939c0.615,0.43,1.105,0.982,1.471,1.655c0.359,0.669,0.543,1.484,0.543,2.439h-3.519
		c-0.031-0.493-0.135-0.901-0.312-1.224c-0.178-0.326-0.412-0.583-0.706-0.766c-0.292-0.186-0.629-0.316-1.007-0.395
		c-0.377-0.077-0.791-0.115-1.239-0.115c-0.293,0-0.584,0.029-0.877,0.094c-0.296,0.062-0.562,0.169-0.8,0.322
		c-0.241,0.155-0.437,0.348-0.59,0.579c-0.153,0.23-0.232,0.525-0.232,0.879c0,0.325,0.063,0.585,0.186,0.786
		c0.124,0.203,0.367,0.387,0.73,0.556c0.36,0.171,0.861,0.34,1.502,0.509c0.641,0.17,1.479,0.387,2.511,0.649
		c0.309,0.062,0.739,0.175,1.286,0.336c0.55,0.161,1.092,0.422,1.63,0.776c0.541,0.354,1.008,0.825,1.4,1.423
		c0.394,0.593,0.592,1.354,0.592,2.28c0,0.754-0.148,1.457-0.442,2.104c-0.292,0.646-0.726,1.208-1.304,1.68
		c-0.579,0.472-1.299,0.838-2.154,1.098c-0.854,0.264-1.847,0.395-2.973,0.395c-0.91,0-1.793-0.113-2.649-0.338
		c-0.857-0.222-1.611-0.571-2.268-1.049c-0.657-0.478-1.178-1.091-1.562-1.831c-0.387-0.74-0.572-1.618-0.556-2.639h3.517
		C539.609,814.699,539.708,815.168,539.91,815.559"/>
</g>
</svg>
