<?xml version="1.0" encoding="utf-8"?>
<!-- Generator: Adobe Illustrator 16.0.0, SVG Export Plug-In . SVG Version: 6.00 Build 0)  -->
<!DOCTYPE svg PUBLIC "-//W3C//DTD SVG 1.1//EN" "http://www.w3.org/Graphics/SVG/1.1/DTD/svg11.dtd">
<svg version="1.1" xmlns="http://www.w3.org/2000/svg" xmlns:xlink="http://www.w3.org/1999/xlink" x="0px" y="0px"
	 width="595.28px" height="350px" viewBox="0 0 595.28 350" enable-background="new 0 0 595.28 350" xml:space="preserve">
<g id="Layer_1">
	<rect x="-56" y="-35" fill="#0000FF" width="688" height="454"/>
</g>
<g id="Layer_3">
	<a href="DM-maps.html" target="_top">
		<g>
			<g>
				<path fill-rule="evenodd" clip-rule="evenodd" fill="#00FF00" d="M510.591,102.184c0.246-0.446,0.136-0.246,0.246-0.444
					c0.837,1.334,1.549,2.465,2.591,4.122c-1.31-0.119-1.699-0.154-1.894-0.171c0.481,0.968,0.995,2,1.709,3.437
					c-2.101-0.169-3.566-0.288-5.032-0.405c-2.228-0.474-4.476-0.953-6.749-1.436c-0.172,0.437-0.289,0.732-0.444,1.125
					c-0.276-0.323-0.482-0.563-0.876-1.025c0,1.409,0,2.557,0,3.705c-0.276,0.114-0.55,0.228-0.824,0.341
					c-3.756-9.429-7.511-18.857-11.264-28.278c0.301-0.433,0.532-0.765,0.879-1.264c-2.007-2.73,0.457-3.33,2.192-4.579
					c2.706-1.949,5.194-4.199,8.251-6.713c0,1.175,0,1.46,0,1.784c0.209,0.012,0.398,0.024,0.239,0.014
					c0.079,0.828,0.152,1.596,0.24,2.518c2.781-0.883,5.212-1.655,7.209-2.288c1.404,0,2.388,0,3.576,0
					c-0.013-0.014,0.14,0.155,0.296,0.325c0.321-0.091,0.637-0.182,1.479-0.425c-1.016,0.677-1.572,1.048-2.938,1.957
					c1.452-0.191,1.965-0.259,2.825-0.373c-0.846,0.468-1.396,0.773-2.027,1.122c0.264,0.413,0.469,0.734,0.669,1.046
					c0.344-0.059,0.654-0.112,1.281-0.219c-0.822,0.548-1.375,0.917-1.929,1.287c0.062,0.125,0.126,0.25,0.189,0.376
					c0.349-0.101,0.699-0.201,1.335-0.383c0.974,0.27,2.207,0.613,3.736,1.038c-0.738,1.102-1.219,1.819-1.693,2.525
					c0.549,0.388,0.954,0.673,1.215,0.857c-0.381,1.527-0.72,2.886-1.058,4.244c0.295,0.112,0.59,0.225,0.885,0.337
					c-0.446,0.559-0.893,1.118-1.123,1.406c-1.4,0.149-2.462,0.263-3.513,0.375c0.199,0.903,0.331,1.5,0.502,2.274
					c-1.188,0.12-2.26,0.229-3.409,0.346c-0.076,0.602-0.153,1.22-0.328,2.617c-0.152-0.28,0.06,0.105,0.31,0.562
					c-0.053,0.083-0.171,0.265-0.29,0.448c0.345,0.33,0.649,0.62,0.954,0.91c-0.266,0.133-0.532,0.265-0.798,0.396
					C508.255,97.684,509.298,99.692,510.591,102.184z"/>
				<path fill-rule="evenodd" clip-rule="evenodd" fill="#00FF00" d="M504.231,175.072c-1.663-0.385-3.711-0.577-5.505-1.354
					c-1.817-0.787-3.382-2.153-5.224-3.375c1.024-0.507,1.858-0.921,2.895-1.437c-0.991-0.691-1.815-1.266-2.813-1.963
					c1.249-0.583,2.4-1.12,3.663-1.71c-0.05-0.458-0.105-0.953-0.169-1.537c0.116-0.222,0.274-0.521,0.311-0.59
					c-0.073-1.296-0.133-2.358-0.215-3.815c0.085,0.111-0.11-0.141-0.457-0.588c0.734-0.24,1.327-0.435,2.111-0.691
					c0.874-0.846,1.946-1.884,3.066-2.968c0.396,0.417,0.719,0.755,1.125,1.183c2.371-2.148,4.713-4.268,7.171-6.493
					c0.224,1.427,0.428,2.718,0.601,3.817c2.116-1.374,4.204-2.731,6.416-4.167c0.1,0.499,0.161,0.804,0.266,1.332
					c1.542-0.853,2.979-1.649,4.677-2.588c-0.611,1.471-1.107,2.667-1.686,4.062c0.607-0.187,0.979-0.301,1.35-0.416
					c0.276,0.187,0.551,0.372,0.827,0.559c-4.605,6.96-9.211,13.921-13.836,20.869c-0.02,0.029-0.326-0.132-0.185-0.073
					C507.155,173.778,505.845,174.358,504.231,175.072z"/>
				<path fill-rule="evenodd" clip-rule="evenodd" fill="#00FF00" d="M496.891,137.896c-2.222,0.792-4.443,1.583-6.664,2.375
					c-0.09-0.15-0.179-0.301-0.268-0.453c2.148-1.05,4.296-2.101,6.431-3.145c0.767-0.157,1.623-0.333,2.479-0.507
					c2.596,2.687,4.484,9.148,3.526,12.358c-0.539,0.125-1.152,0.266-1.878,0.434c-0.446-1.072-0.857-2.058-1.268-3.044
					c0.587,5.136-3.982,2.214-5.757,4.297c-0.168-1.354-0.268-2.162-0.369-2.971c-0.113,0.029-0.228,0.057-0.342,0.086
					c-0.31-1.38-0.621-2.761-0.948-4.22c-0.127,0.041-0.725,0.232-1.687,0.54c0.695-0.838,1.184-1.427,1.673-2.016
					c-0.111-0.21-0.222-0.42-0.334-0.63c0.973-0.58,1.942-1.167,2.922-1.735c0.819-0.477,1.652-0.932,2.479-1.396
					c0.112,0.066,0.25,0.059,0.362,0.121C497.138,137.928,497.008,137.936,496.891,137.896z"/>
				<path fill-rule="evenodd" clip-rule="evenodd" fill="#00FF00" d="M165.091,317.651c-0.272-0.236-0.602-0.521-0.976-0.843
					c0.126-0.387,0.247-0.76,0.408-1.253c0.405,0.276,0.749,0.509,1.172,0.796c0,1.903,0,3.796,0,5.689
					c0.208-0.009,0.414-0.018,0.622-0.025c0.151,0.289,0.304,0.579,0.595,1.134c0.231-0.636,0.376-1.037,0.668-1.845
					c0.145,0.947,0.23,1.51,0.348,2.285c-1.017-0.223-1.854-0.409-2.772-0.611c0,0.679,0,1.344,0,2.093
					c0.403,0.12,0.817,0.242,1.386,0.41c-0.169,0.383-0.315,0.712-0.499,1.125c-0.479-0.312-0.841-0.547-1.482-0.966
					c-0.641,0.684-1.303,1.39-2.422,2.584c0.332-1.36,0.53-2.17,0.727-2.98c-0.1-0.003-0.2-0.008-0.3-0.012
					c0.078-1.296,0.157-2.593,0.235-3.9c0.258-0.103,0.525-0.209,0.397-0.158C163.921,319.831,164.468,318.812,165.091,317.651z"/>
				<path fill-rule="evenodd" clip-rule="evenodd" fill="#00FF00" d="M488.132,181.356c-0.028-0.352-0.058-0.703-0.104-1.254
					c0.692,0.18,1.34,0.348,2.234,0.58c-0.243-0.524-0.369-0.798-0.548-1.186c0.57,0.431,1.06,0.801,1.808,1.367
					c-0.165-0.746-0.241-1.087-0.306-1.38c0.372-0.221,0.689-0.408,1.439-0.853c-1.313-0.074-2.133-0.12-2.988-0.169
					c-0.179-0.353-0.346-0.68-0.501-0.985c-0.377-0.062-0.729-0.119-1.079-0.176c0.036-0.166,0.073-0.332,0.11-0.499
					c0.43,0.123,0.86,0.246,1.703,0.487c0.942,0,2.33,0,3.951,0c-0.144,0.603-0.253,1.056-0.458,1.919
					c-0.017-0.011,0.221,0.152,0.379,0.258c-0.199,0.067-0.583,0.197-1.584,0.534c1.077,0.251,1.547,0.36,2.018,0.471
					c0.096,0.236,0.191,0.472,0.287,0.708c-1.203,0.338-2.407,0.677-3.329,0.935c-0.759-0.143-1.26-0.239-1.865-0.353
					c-0.043-0.137-0.121-0.388-0.224-0.716c-0.332,0.099-0.649,0.193-0.966,0.287L488.132,181.356z"/>
				<path fill-rule="evenodd" clip-rule="evenodd" fill="#00FF00" d="M487.487,183.722c-0.338,0.218-0.677,0.438-1.015,0.66
					c-0.039,0.533-0.076,1.061-0.119,1.651c-0.157-0.183-0.273-0.316-0.679-0.785c0.186,0.847,0.286,1.297,0.385,1.749
					c-0.133,0.021-0.266,0.042-0.4,0.062c-0.188-1.847-0.377-3.695-0.59-5.787c-0.086,0.059,0.159-0.107,0.466-0.316
					c0.042-0.59,0.09-1.226,0.133-1.807c-0.341-0.297-0.62-0.54-1.178-1.026c0.838,0.334,1.336,0.532,1.819,0.725
					c0.033,0.521,0.067,1.057,0.097,1.518c0.602,0.344,1.163,0.666,1.725,0.988c0.001,0.001-0.024-0.025-0.024-0.025
					c0.001,0.101,0.001,0.2,0.001,0.28c-0.332-0.073-0.69-0.152-1.317-0.29c0.375,0.61,0.589,0.958,0.804,1.307
					c-0.173,0.149-0.457,0.199-0.457,0.458C487.097,183.419,487.363,183.528,487.487,183.722z"/>
				<path fill-rule="evenodd" clip-rule="evenodd" fill="#00FF00" d="M149.945,321.079c0.4-0.036,0.8-0.072,1.199-0.11
					c0.24-0.455,0.479-0.91,0.671-1.275c0.883,0.147,1.597,0.266,2.397,0.397c-0.22,0.631-0.429,1.233-0.748,2.146
					c-1.139-0.254-2.361-0.526-3.583-0.798C149.902,321.32,149.925,321.199,149.945,321.079z"/>
				<path fill-rule="evenodd" clip-rule="evenodd" fill="#00FF00" d="M173.23,312.74c0.048,0.627,0.204,1.269,0.12,1.877
					c-0.101,0.719-0.411,1.41-1.332,1.961c-0.41-1.107-0.818-2.215-1.228-3.322c0.126-0.053,0.253-0.104,0.38-0.156
					c0.429,1.029,0.857,2.059,1.285,3.087c0.245-0.073,0.489-0.146,0.734-0.219c-0.796-2.021-1.591-4.042-2.439-6.195
					c0.925,1.104,1.712,2.043,2.501,2.984C173.253,312.759,173.23,312.74,173.23,312.74z"/>
				<path fill-rule="evenodd" clip-rule="evenodd" fill="#00FF00" d="M145.093,319.829c0.582,1.544,1.179,3.126,1.775,4.708
					c-0.075,0.032-0.148,0.062-0.222,0.094c-0.476-1.166-0.951-2.331-1.461-3.585c-0.266,0.151-0.475,0.271-0.553,0.314
					c-0.735-0.454-1.404-0.867-2.48-1.531C143.345,319.829,144.126,319.829,145.093,319.829z"/>
				<path fill-rule="evenodd" clip-rule="evenodd" fill="#00FF00" d="M486.219,94.371c0,1.316,0,2.631,0,3.146
					c1.162-2.91-1.799-2.741-3.916-3.335c0.432,0.083,0.864,0.168,1.294,0.252c0.05-0.156,0.1-0.313,0.149-0.469
					c-0.593-0.201-1.187-0.403-1.814-0.617c1.138,0,2.289,0,3.44,0c0.015,0.044,0.031,0.087,0.046,0.131
					c0.104,0.388,0.391,0.604,0.728,0.776C486.171,94.294,486.195,94.332,486.219,94.371z"/>
				<path fill-rule="evenodd" clip-rule="evenodd" fill="#00FF00" d="M488.292,136.583c-0.717-0.052-1.049-0.075-1.509-0.108
					c-0.045-0.726-0.087-1.408-0.135-2.185c0.602,0,1.087,0,1.85,0C488.43,135.052,488.364,135.777,488.292,136.583z"/>
				<path fill-rule="evenodd" clip-rule="evenodd" fill="#00FF00" d="M499.27,154.401c1.093-0.787,1.851-1.333,2.833-2.038
					c0.285,0.815,0.442,1.26,0.716,2.038C501.632,154.401,500.699,154.401,499.27,154.401z"/>
				<path fill-rule="evenodd" clip-rule="evenodd" fill="#00FF00" d="M486.714,130.966c0.49-0.07,0.905-0.13,1.471-0.211
					c0,0.862,0,1.602,0,2.398c-0.551,0-0.971,0-1.471,0C486.714,132.399,486.714,131.711,486.714,130.966z"/>
				<path fill-rule="evenodd" clip-rule="evenodd" fill="#00FF00" d="M502.056,149.323c0.257,0.581,0.43,0.974,0.655,1.483
					c-0.645,0.216-1.177,0.396-1.792,0.602c-0.204-0.481-0.384-0.905-0.624-1.468C500.901,149.728,501.421,149.545,502.056,149.323z
					"/>
				<path fill-rule="evenodd" clip-rule="evenodd" fill="#00FF00" d="M144.652,324.767c-0.753-0.47-1.422-0.89-2.158-1.35
					c0.301-0.188,0.598-0.373,0.989-0.615c0.589,0.332,1.188,0.668,1.818,1.023C145.047,324.194,144.794,324.561,144.652,324.767z"
					/>
				<path fill-rule="evenodd" clip-rule="evenodd" fill="#00FF00" d="M159.921,320.964c-0.298,1.57-0.44,2.322-0.618,3.263
					c-0.429-0.122-1.022-0.29-1.365-0.388C158.479,323.052,158.993,322.31,159.921,320.964z"/>
				<path fill-rule="evenodd" clip-rule="evenodd" fill="#00FF00" d="M485.27,143.193c-0.226-0.33-0.426-0.622-0.797-1.164
					c1.034-0.185,1.898-0.338,2.763-0.493c0.024,0.139,0.049,0.276,0.073,0.413c-0.301,0.054-0.602,0.107-1.091,0.194
					c0.299,0.238,0.466,0.37,0.767,0.611C486.32,142.924,485.809,143.055,485.27,143.193z"/>
				<path fill-rule="evenodd" clip-rule="evenodd" fill="#00FF00" d="M167.232,316.029c0.055-0.641,0.091-1.068,0.142-1.66
					c0.244-0.02,0.571-0.048,0.947-0.08c0.195,0.64,0.374,1.222,0.586,1.919C168.289,316.142,167.658,316.075,167.232,316.029z"/>
				<path fill-rule="evenodd" clip-rule="evenodd" fill="#00FF00" d="M159.737,318.504c-0.136,0.729-0.271,1.459-0.442,2.38
					c-0.491-0.162-1.085-0.358-1.18-0.389c0.397-0.718,0.832-1.508,1.268-2.299C159.501,318.298,159.619,318.4,159.737,318.504z"/>
				<path fill-rule="evenodd" clip-rule="evenodd" fill="#00FF00" d="M488.675,139.152c-0.424,0.069-0.748,0.122-1.12,0.182
					c-0.201-0.276-0.375-0.513-0.567-0.778c0.144-0.347,0.272-0.655,0.409-0.984c0.329,0,0.618,0,0.936,0
					C488.445,138.089,488.544,138.546,488.675,139.152z"/>
				<path fill-rule="evenodd" clip-rule="evenodd" fill="#00FF00" d="M494.207,178.478c0.433-0.123,0.666-0.188,0.917-0.259
					c0.051-0.311,0.105-0.636,0.171-1.032c0.475,0.034,0.903,0.064,1.386,0.099c0,0.364,0,0.722,0,1.219
					c-0.264-0.309-0.445-0.521-0.759-0.889c-0.034,0.486-0.055,0.78-0.082,1.152C495.34,178.68,494.888,178.6,494.207,178.478z"/>
				<path fill-rule="evenodd" clip-rule="evenodd" fill="#00FF00" d="M146.626,321.276c-0.61-1.569-1.219-3.137-1.829-4.706
					c0.081-0.031,0.162-0.062,0.243-0.092c0.619,1.585,1.238,3.17,1.856,4.757C146.807,321.248,146.717,321.263,146.626,321.276z"/>
				<path fill-rule="evenodd" clip-rule="evenodd" fill="#00FF00" d="M485.057,131.035c-0.468-1.159-0.703-1.742-0.97-2.408
					c0.378-0.153,0.672-0.272,1.146-0.466C485.18,129.019,485.137,129.726,485.057,131.035z"/>
				<path fill-rule="evenodd" clip-rule="evenodd" fill="#00FF00" d="M167.21,319.401c0.03-0.568,0.059-1.124,0.141-2.661
					c0.302,1.708,0.434,2.457,0.594,3.368c-0.59-0.058-1.062-0.105-1.884-0.188C166.636,319.662,166.902,319.541,167.21,319.401z"/>
				<path fill-rule="evenodd" clip-rule="evenodd" fill="#00FF00" d="M483.499,183.354c-0.378,0.023-0.756,0.047-1.191,0.075
					c0.012-0.092,0.043-0.339,0.087-0.686c-0.409,0-0.752,0-1.213,0c0.172,0.309,0.302,0.542,0.551,0.99
					c-0.493-0.347-0.803-0.564-1.111-0.782c0.049-0.169,0.098-0.339,0.147-0.507c0.933,0.191,1.866,0.384,2.798,0.577
					C483.545,183.131,483.522,183.242,483.499,183.354z"/>
				<path fill-rule="evenodd" clip-rule="evenodd" fill="#00FF00" d="M485.374,93.348c0.259-0.014,0.519-0.028,0.778-0.042
					c0.106-0.25,0.212-0.502,0.317-0.752c-1.209-0.574-2.419-1.147-3.052-1.447c0.368,0.11,1.596,0.196,2.4,0.823
					c0.479,0.373,0.291,1.6,0.402,2.442l0.026,0.008c-0.343-0.301-0.93-0.407-0.84-1.054L485.374,93.348z"/>
				<path fill-rule="evenodd" clip-rule="evenodd" fill="#00FF00" d="M498.454,176.787c0.407,0.025,0.722,0.044,1.528,0.093
					c-0.816,0.466-1.303,0.743-1.79,1.021c-0.088-0.126-0.175-0.254-0.263-0.38C498.109,177.271,498.288,177.02,498.454,176.787z"/>
				<path fill-rule="evenodd" clip-rule="evenodd" fill="#00FF00" d="M493.148,160.389c0.478-0.316,0.956-0.632,1.434-0.948
					c0.077,0.104,0.155,0.208,0.232,0.311c-0.518,0.289-1.035,0.578-1.552,0.867C493.224,160.542,493.186,160.464,493.148,160.389z"
					/>
				<path fill-rule="evenodd" clip-rule="evenodd" fill="#00FF00" d="M176.462,306.903c0.071-0.526,0.11-0.815,0.145-1.081
					c0.36-0.056,0.646-0.1,1.332-0.207C177.385,306.098,177.015,306.421,176.462,306.903z"/>
				<path fill-rule="evenodd" clip-rule="evenodd" fill="#00FF00" d="M498.256,155.019c-0.359,0.322-0.717,0.644-1.075,0.966
					c-0.108-0.136-0.214-0.273-0.322-0.41c0.388-0.278,0.774-0.555,1.163-0.832C498.099,154.835,498.177,154.926,498.256,155.019z"
					/>
				<path fill-rule="evenodd" clip-rule="evenodd" fill="#00FF00" d="M173.726,308.692c-0.332-0.244-0.664-0.487-1.109-0.814
					c0.026-0.136,0.082-0.412,0.213-1.082c0.404,0.863,0.649,1.385,0.892,1.912C173.72,308.713,173.726,308.692,173.726,308.692z"/>
				<path fill-rule="evenodd" clip-rule="evenodd" fill="#00FF00" d="M479.917,121.916c-0.301,0.421-0.603,0.842-0.904,1.262
					c-0.11-0.077-0.22-0.152-0.329-0.229c0.299-0.423,0.598-0.846,0.896-1.269C479.692,121.759,479.805,121.838,479.917,121.916z"/>
				<path fill-rule="evenodd" clip-rule="evenodd" fill="#00FF00" d="M119.195,125.312c0.271,0.198,0.542,0.396,0.752,0.549
					c0.71-0.414,1.361-0.794,2.012-1.173c0.089,0.163,0.178,0.325,0.268,0.487c-0.368,0.514-0.735,1.027-1.103,1.542
					c0.084,0.081,0.169,0.164,0.252,0.246c0.434-0.316,0.868-0.633,1.354-0.987c0,0.342,0,0.633,0,0.771
					c0.366,0.41,0.646,0.723,0.977,1.093c0.145-0.105,0.37-0.27,0.491-0.357c-0.473,0.712-1.005,1.512-1.537,2.311
					c0.17,0.14,0.339,0.279,0.51,0.42c0.708-0.597,1.417-1.194,2.125-1.791c0.053,0.086,0.104,0.171,0.156,0.256
					c0.524-0.308,1.048-0.616,1.812-1.065c-0.098-0.034,0.175,0.062,0.512,0.18c0.076-0.279,0.133-0.49,0.211-0.777
					c-1.043-0.351-2.024-0.681-3.146-1.058c0.364-0.625,0.731-1.254,1.311-2.248c0,0.885,0,1.33,0,1.847
					c0.235,0.145,0.485,0.297,0.977,0.597c0.159-0.572,0.28-1.004,0.4-1.436c0.108-0.001,0.215-0.001,0.322-0.002
					c0.131-2.187,0.263-4.375,0.401-6.695c0.654,0.857,1.227,1.605,1.73,2.263c-0.235,0.159-0.814,0.55-1.519,1.027
					c0.833,0.948,1.506,1.716,2.497,2.847c0.854,0.164,2.121,0.406,3.388,0.649c-0.067,0.439-0.283,0.828-0.462,1.277
					c0.713,1.329,0.115,2.409-0.838,3.412c0.683,0.123,0.854,0.097,0.881-0.401c0.046-0.836,0.407-1.649,0.184-2.506
					c-0.161-0.612,0.082-1.189,0.211-1.772c-0.244-0.776-0.488-1.55-0.69-2.193c-1.08,0.463-1.52,0.652-1.152,0.494
					c-1-0.867-1.574-1.366-2.081-1.805c0.457,0.02,1.321,0.06,2.276,0.104c-0.031-0.535-0.054-0.954-0.092-1.634
					c0.681,0.582,1.189,1.015,1.696,1.45c0.166-0.226,0.332-0.448,0.498-0.672c-1.461-0.878-2.923-1.756-4.542-2.728
					c0.887,0.121,1.6,0.218,2.476,0.336c-0.078-0.651-0.132-1.104-0.218-1.833c0.69,0.602,1.234,1.075,1.939,1.69
					c0-3.805,0-7.46-0.001-11.115c-3.369-1.6-14.905-0.331-15.462,1.849c-0.387-1.295-0.735-2.461-1.145-3.835
					c-0.112,0.647-0.192,1.111-0.227,1.304c-5.807,0-11.507,0-17.451,0c0.341-0.635,0.477-0.89,0.683-1.274
					c-0.671-0.075-1.278-0.142-1.883-0.208c0.004-0.136,0.01-0.273,0.014-0.41c6.398,0,12.798,0,19.325,0
					c-0.105-1.087-0.18-1.857-0.316-3.278c-0.291,1.098-0.41,1.544-0.479,1.808c-5.761,0-11.404,0-17.265,0
					c0.282-0.612,0.415-0.899,0.584-1.266c-0.614-0.065-1.188-0.125-1.762-0.186c0.007-0.14,0.013-0.279,0.019-0.419
					c7.704,0,15.407,0,23.14,0c0-1.62,0-2.944,0-4.268c-0.012,0.001-0.024,0.002-0.036,0.004c0-1.188,0-2.377,0-3.566
					c0.054-0.034,0.106-0.067,0.159-0.101c0.103,0.756,0.207,1.513,0.316,2.318c0.283,0,0.569,0,0.938,0
					c0.048,0.56,0.095,1.092,0.14,1.625c-0.036,0.003-0.073,0.007-0.109,0.011c-0.042-0.376-0.082-0.753-0.123-1.13
					c-0.136-0.024-0.272-0.048-0.407-0.072c-0.202,0.926-0.404,1.852-0.638,2.918c0.512-0.065,0.824-0.104,1.115-0.141
					c-0.366,0.689-0.711,1.342-1.039,1.962c4.093,0,7.989,0,11.822,0c0-3.391,0-6.497,0-9.427c-3.709,0-7.217,0-11.461,0
					c0.436,0.323,0.168,0.125-0.049-0.038c-0.09-0.467-0.165-0.85-0.306-1.578c-0.25,0.628-0.364,0.914-0.616,1.55
					c-0.884-0.543-1.67-1.024-2.456-1.505c0.08-0.135,0.161-0.271,0.241-0.404c-0.258-0.147-0.518-0.295-1.653-0.939
					c2.043-0.221,3.288-0.355,4.653-0.503c-0.02-0.405-0.039-0.806-0.085-1.728c-0.307,0.748-0.41,1.003-0.665,1.625
					c-0.834-0.455-1.629-0.888-2.423-1.321c0.081-0.15,0.162-0.3,0.244-0.45c-0.258-0.142-0.516-0.284-1.193-0.656
					c0.635-0.293,0.99-0.597,1.348-0.601c2.952-0.04,5.924,0.171,8.852-0.101c1.687-0.157,3.302-1.07,5.505-1.837
					c-0.861-0.422-1.025-0.502-1.234-0.604c0.845-0.248,1.652-0.485,2.636-0.774c1.814,1.304,3.844,2.558,5.584,4.131
					c0.572,0.518,0.396,1.864,0.212,2.898c0.168,0.974,0.337,1.95,0.544,3.15c-1.706-0.173-2.947-0.299-4.277-0.434
					c0,3.413,0,6.514,0,9.685c2.612,0.16,5.144,0.315,7.367,0.451c0.56,0.57,0.93,0.949,1.52,1.551c0,0.075,0,0.53,0,0.826
					c-2.934,0-5.828,0-8.724,0c0.001,0.142,0.002,0.283,0.004,0.423c5.526,0.414,11.051,0.829,16.577,1.243
					c0.002,0.055,0.004,0.111,0.007,0.166c-1.759,0.136-3.518,0.273-5.277,0.41c4.568-0.222,9.558,1.171,13.049-3.167
					c0.408,0.275,0.637,0.43,0.943,0.635c0.892-1.078,1.75-2.113,3.239-3.91c-2.648,1.847-4.509,3.146-6.841,4.772
					c3.829-4.455,7.29-8.479,10.915-12.698c0.54,1.448,0.985,2.646,1.428,3.835c-0.297,0.334-0.518,0.583-0.891,1.004
					c0.496-0.093,0.789-0.147,1.165-0.217c0.263,0.697,0.526,1.395,0.773,2.05c-2.979,2.105-5.911,4.176-8.842,6.247
					c0.078,0.111,0.155,0.222,0.233,0.332c2.549-1.797,5.098-3.596,7.739-5.459c0.396,0.93,0.74,1.734,1.257,2.944
					c0.313-0.657,0.471-0.992,0.59-1.242c0.208,0.251,0.502,0.611,0.797,0.969c1.69-0.664,3.313-1.3,4.92-1.931
					c-0.022-0.494-0.037-0.829-0.059-1.295c0.225-0.155,0.506-0.35,0.811-0.56c-0.299-0.931-0.567-1.766-0.891-2.775
					c0.629-0.183,1.182-0.342,1.808-0.523c0.307,0.658,0.558,1.197,0.99,2.124c3.528-4.968,6.891-9.706,9.934-13.992
					c-0.132-0.629-0.072-0.342-0.012-0.055c0.233,0.074,0.465,0.147,0.698,0.221c0.422-1.477,1.068-2.932,1.217-4.435
					c0.273-2.771,0.24-5.571,0.363-8.357c0.063-1.428,0.185-2.854,0.82-4.285c0.67,1.852,1.339,3.706,1.972,5.458
					c1.186,0.54,2.268,1.032,3.306,1.504c0.999,1.705,2.016,3.443,2.935,5.012c0.797,0,1.136,0,1.662,0
					c0.123,0.363,0.263,0.78,0.459,1.365c0.111,0.105,0.357,0.341,0.551,0.525c0.136,0.523,0.255,0.979,0.4,1.536
					c-0.2,0.304-0.477,0.726-0.714,1.088c0.309,0.797,0.578,1.495,0.861,2.226c-0.187,0.216-0.384,0.446-0.75,0.873
					c0.35,0.903,0.736,1.897,1.122,2.892c-0.092,0.004-0.184,0.009-0.276,0.013c0.286,1.608,0.572,3.217,0.858,4.825
					c0.096-0.01,0.191-0.02,0.287-0.03c0.195,1.744,0.39,3.487,0.585,5.23c0.128-0.01,0.257-0.019,0.385-0.028
					c-0.128,0.648-0.257,1.296-0.368,1.856c0.266,0.857,0.437,1.747,0.818,2.537c0.366,0.756,0.949,1.407,1.575,2.303
					c0.022-0.047-0.113,0.24-0.29,0.618c0.39,0.27,0.739,0.511,1.181,0.815c-0.148,0.304-0.307,0.627-0.487,0.994
					c0.185,0.787,0.378,1.613,0.596,2.544c-0.134,0.173-0.34,0.44-0.614,0.797c0.256,0.844,0.523,1.73,0.891,2.944
					c0.132,0.541,0.347,1.424,0.599,2.454c1.142-0.429,2.059-0.773,3.123-1.172c-0.234-0.991-0.457-1.933-0.679-2.872
					c0.278,0.407,0.568,0.829,0.736,1.076c1.111-0.466,1.844-0.773,3.047-1.279c-0.541,0.568-0.714,0.75-0.946,0.994
					c0.334,1.002,0.666,1.999,1.062,3.19c1.106-0.473,2.086-0.893,3.127-1.339c-0.089-0.707-0.159-1.269-0.232-1.846
					c-0.419-0.144-0.77-0.265-1.64-0.563c0.244-0.939,0.497-1.91,0.816-3.141c0.034,0.025-0.364-0.283-0.71-0.553
					c-1.121,0.496-2.188,0.967-3.61,1.594c0.253-0.711,0.373-1.049,0.54-1.519c-0.898-0.225-1.812-0.454-2.924-0.732
					c-0.194-0.132-0.619-0.419-1.519-1.03c0.24-3.745,0.5-7.835,0.766-11.995c0.595,0.049,0.923,0.077,1.251,0.104
					c-0.04-0.151-0.08-0.3-0.121-0.45c5.05-1.191,10.101-2.383,15.419-3.637c-2.576-3.774-5.045-7.392-7.677-11.247
					c0.673-0.133,1.14-0.225,1.607-0.317c-0.002-0.158-0.004-0.316-0.007-0.475c4.843,0,9.687,0,14.529,0
					c-0.003-0.097-0.008-0.193-0.011-0.291c2.315,0,4.628,0,7.131,0c0-3.776,0-7.688,0-10.804c-1.563-1.26-3.541-2.061-3.776-3.215
					c-0.431-2.124,0.165-4.455,0.292-6.163c1.73-0.198,2.632-0.301,3.638-0.415c-0.011-0.067,0.018,0.112,0.033,0.213
					c2.132,0,4.233,0,6.441,0c0-2.166,0-4.357,0-6.66c0.282-0.083,0.622-0.182,1.576-0.46c-0.38,1.031-0.6,1.63-0.821,2.229
					c-0.124-0.042-0.247-0.082-0.371-0.124c0,0.337,0,0.673,0,1.011c0.177,0,0.354,0.001,0.529,0.001c0,0.827,0,1.653,0,2.479
					c-0.18,0.001-0.36,0.002-0.541,0.003c0.027,0.501,0.055,1.002,0.087,1.583c1.891,0,3.695,0,5.472,0
					c0.395-0.429,0.789-0.857,1.343-1.458c-0.016-0.188-0.052-0.61-0.091-1.093c-0.401,0.025-0.693,0.044-1.089,0.069
					c-0.083-0.276-0.166-0.545-0.339-1.116c0.361,0.378,0.499,0.521,0.676,0.705c0.244-0.261,0.44-0.472,0.753-0.807
					c0.214,1.293,0.408,2.459,0.614,3.699c0.826,0,1.594,0,2.376,0c0.216-0.679,0.429-1.345,0.674-2.111
					c-0.181-0.134-0.414-0.308-0.647-0.48c-0.061,0.121-0.121,0.24-0.18,0.36c-0.554-0.252-1.132-0.466-1.631-0.798
					c-0.075-0.049,0.222-0.657,0.766-0.887c-0.056,0.385-0.112,0.768-0.185,1.272c0.381-0.073,0.701-0.133,0.904-0.171
					c0.551-0.761,1.03-1.424,1.595-2.204c0.086,0.665,0.164,1.274,0.242,1.885c-0.096-0.004-0.192-0.009-0.288-0.013
					c-0.065,1.014-0.13,2.029-0.201,3.146c1.952,0,3.646,0,5.302,0c0.201-0.69,0.387-1.324,0.535-1.83
					c-0.129-0.829-0.246-1.576-0.363-2.323c0.038-0.008,0.077-0.017,0.115-0.024c0.104,0.441,0.208,0.884,0.414,1.76
					c0.654-0.696,1.078-1.15,1.889-2.016c-0.21,0.061,0.165-0.047,1.458-0.418c-1.075,0.6-1.321,0.737-1.959,1.094
					c1.19,0.275,2.049,0.473,3.756,0.867c-1.848-0.118-2.812-0.179-3.856-0.246c-0.259,0.229-0.561,0.494-0.972,0.854
					c0.325,0.447,0.632,0.868,1.123,1.542c0.003,0.013,0.086,0.34,0.19,0.746c2.579,0,5.167,0,7.885,0
					c0.062-0.979,0.121-1.92,0.194-3.097c3.341,0,6.625,0,10.335,0c-1.301-1.147-2.24-1.975-3.007-2.651
					c0-2.956-0.459-5.805,0.153-8.401c0.447-1.894,2.361-3.419,3.522-5.172c2.388-3.608,5.61-4.627,9.94-4.479
					c10.114,0.346,20.248,0.109,30.374,0.118c0.562,0,1.125,0.097,2.096,0.187c-0.357,3.69,0.272,7.762-1.308,10.606
					c-1.67,3.008-0.404,5.733-1.195,8.443c-0.216,0.746-0.504,1.471-0.995,2.125c-0.513,2.661-1.026,5.322-1.581,8.195
					c-1.861,0.314-3.908,0.661-6.033,1.021c-0.165,0.203-0.375,0.461-0.537,0.662c-2.125,0.614-4.168,1.205-6.237,1.804
					c0,2.099,0,3.951,0,5.947c-0.097,0.089-0.315,0.292-0.578,0.534c0.241,1.654,0.479,3.306,0.78,5.381
					c6.917-2.623,13.627-5.168,20.338-7.712c-0.013-0.029-0.026-0.061-0.04-0.09c11.984-4.506,23.966-9.011,36.044-13.553
					c0.118-1.682,0.232-3.328,0.347-4.975c0.173,0.012,0.347,0.024,0.52,0.036c-0.137-0.766-0.274-1.531-0.454-2.526
					c3.063-0.446,6.074-0.884,9.229-1.345c0.499,1.259,1.011,2.552,1.573,3.969c0.542-0.16,1.048-0.309,1.552-0.457
					c0.106-0.354,0.191-0.635,0.249-0.825c0.763,0.153,1.491,0.299,2.27,0.455c0.218-0.395,0.373-0.677,0.49-0.89
					c-0.665-0.609-1.257-1.151-1.985-1.817c-0.137-0.012-0.461-0.04-0.792-0.067c0-0.424,0-0.811,0-1.35
					c0.371,0.319,0.621,0.535,0.941,0.812c0.456-0.294,0.913-0.591,1.492-0.964c-0.506-0.578-0.899-1.026-1.333-1.521
					c0.041-0.293,0.087-0.623,0.164-1.181c0.924-0.24,1.888-0.491,2.851-0.743c-0.019-0.066-0.039-0.133-0.057-0.199
					c0.716-0.127,1.434-0.254,2.311-0.41c0-1.551-0.242-3.246,0.09-4.819c0.203-0.97,1.226-2.453,1.976-2.511
					c4.273-0.338,8.576-0.295,12.867-0.426c2.479-0.076,4.955-0.217,7.429-0.377c0.344-0.022,0.67-0.324,0.917-0.452
					c0.277,0.321,0.601,0.698,1.047,1.215c-0.008,0.059-0.058,0.468-0.124,0.985c-0.146,0.104-0.417,0.293-0.869,0.61
					c0.354,0.502,0.677,0.96,1.076,1.524c-0.038,0.422-0.092,1.038-0.163,1.828c0.526-0.12,1.027-0.232,1.559-0.353
					c0.021-0.404,0.035-0.694,0.068-1.338c0.866,0,1.741,0,2.618,0c0.048,0.181,0.097,0.364,0.145,0.545
					c-0.792,0.454-1.584,0.907-2.486,1.424c0.556,0.181,1.151,0.376,1.666,0.545c0.604-0.179,1.115-0.33,1.701-0.503
					c0.133,0.531,0.236,0.94,0.331,1.316c0.89,0.093,1.719,0.181,2.71,0.286c0-0.705,0-1.431,0-2.157l0.013,0.013
					c0.024-0.129,0.048-0.26,0.202-1.082c0.273,1.359,0.414,2.059,0.619,3.069c0.648-0.086,1.648-0.22,2.481-0.331
					c0-2.919,0-5.778,0-9.278c-0.034,0.15,0.334-0.485,0.175-0.93c-1.121-3.126,1.632-3.168,3.208-4.118
					c0.83-0.5,1.726-0.888,2.257-1.943c-0.817,0.457-1.635,0.913-2.526,1.412c-0.066-0.304-0.126-0.58-0.233-1.065
					c-0.975,0.55-1.895,1.071-2.816,1.592c-0.162-0.235-0.322-0.469-0.482-0.704c3.518-2.171,7.035-4.342,10.705-6.605
					c-0.038,0.802-0.069,1.492-0.105,2.252c0.805,0.452,1.659,0.93,2.867,1.606c0.803,0.105,2.046,0.268,3.289,0.431
					c-0.042,0.155-0.082,0.31-0.123,0.465c-0.407,0.079-0.816,0.157-1.685,0.323c0.777,0.303,1.081,0.422,1.769,0.69
					c-0.699,0-0.982,0-1.311,0c-0.08,0.289-0.15,0.542-0.248,0.893c-0.114-0.317-0.202-0.563-0.454-1.264
					c-0.089,0.963-0.137,1.466-0.206,2.219c0.684-0.181,1.208-0.319,1.742-0.46c0.11,0.217,0.242,0.479,0.451,0.891
					c-0.896,0.784-1.809,1.583-2.723,2.382c0.114,0.11,0.229,0.221,0.345,0.331c0.16-0.252,0.321-0.503,0.468-0.733
					c0.603-0.25,1.165-0.483,1.795-0.745c0.131,0.193,0.27,0.399,0.492,0.727c0.116-0.453,0.204-0.792,0.24-0.934
					c0.548,0.186,1.065,0.359,1.88,0.634c-0.62,0-0.97,0-1.253,0c-0.472,0.25-0.888,0.468-1.472,0.774
					c0.457,0.774,0.912,1.543,1.398,2.368c-0.15,0.198-0.327,0.43-0.347,0.455c-1.203,0.288-2.194,0.524-3.22,0.769
					c0.236,0.619,0.471,1.233,0.705,1.847c0.077,0.035,0.123,0.095,0.138,0.178c-0.301,0.4-0.602,0.8-0.792,1.051
					c0.169,3.717-2.428,3.474-5.056,3.69c1.375,2.141,2.666,4.149,4.046,6.296c0.119-0.353,0.187-0.555,0.273-0.812
					c0.122,0.192,0.242,0.382,0.392,0.62c1.486-0.566,2.915-1.11,4.344-1.653c0.036,0.091,0.071,0.183,0.105,0.276
					c-2.027,0.862-4.053,1.725-6.263,2.665c0.384,0.906,0.673,1.584,0.828,1.95c1.986-0.541,3.723-1.013,5.459-1.485
					c0.037,0.083,0.073,0.168,0.111,0.251c-0.971,0.364-1.944,0.729-3.086,1.156c1.301,3.525,2.556,6.925,3.886,10.529
					c0.06-1.009,0.105-1.749,0.15-2.491c0.117,0.001,0.233,0.002,0.349,0.003c-0.169-0.937-0.337-1.874-0.534-2.965
					c1.269-0.391,2.488-0.767,3.765-1.16c0.092-0.694,0.18-1.359,0.283-2.14c1.854-0.736,3.713-1.476,5.627-2.234
					c0.105-1.149,0.207-2.256,0.409-4.456c1.459,2.205,2.549,3.548,3.307,5.058c1.411,2.81,3.48,4.504,6.865,4.589
					c-1.189-3.419-2.38-6.842-3.59-10.321c0.384-0.182,0.637-0.302,0.994-0.471c-0.312-0.762-0.606-1.48-0.954-2.329
					c-0.478,0.421-0.875,0.771-1.302,1.147c-0.116-0.352-0.278-0.838-0.513-1.55c0.532,0.246,0.819,0.379,1.163,0.538
					c0.162-0.306,0.3-0.568,0.486-0.917c3.301-1.093,6.661-2.205,9.871-3.267c0.435,0.833,0.574,1.096,0.703,1.346
					c-0.187,0.849-0.371,1.682-0.494,2.241c0.365,3.446,0.771,6.615,1.017,9.798c0.25,3.236,0.534,6.534-1.979,8.45
					c-0.278,3.608,1.454,6.898-1.629,9.471c-0.118,0.718-0.232,1.434-0.456,2.836c2.19,1.587,4.58,3.32,7.186,5.208
					c-1.151,0.773-1.422,0.956-1.773,1.192c0.13,0.471,0.262,0.948,0.422,1.527c0.39-0.045,0.7-0.083,1.023-0.12
					c0.171-0.664,0.318-1.234,0.456-1.764c0.745,0.321,1.384,0.597,2.773,1.194c-0.166-0.14,0.305,0.257,0.87,0.732
					c-0.143,0.851-0.292,1.741-0.443,2.632c0.219,0.126,0.438,0.254,0.657,0.381c-0.679,1.356-1.359,2.713-2.155,4.3
					c0.274,0.323,0.944,1.119,1.881,2.229c-0.62-0.288-0.868-0.403-1.176-0.546c-0.182,0.524-0.345,0.998-0.554,1.602
					c0.449,0.635,0.933,1.315,1.543,2.177c-0.446-0.169-0.698-0.265-1.083-0.411c-0.403,1.492-0.784,2.906-1.188,4.403
					c-0.394-0.144-0.644-0.236-0.967-0.356c0,0.559,0,1.053,0,2.156c1.988-1.188,3.591-2.146,5.763-3.442
					c0.206,0.122,0.943,0.562,2.266,1.351c-1.086,0.204-1.358,0.255-1.629,0.305c0.099,0.184,0.198,0.367,0.298,0.55
					c-2.417,1.257-4.833,2.513-7.251,3.771c0.078,0.274,0.166,0.58,0.265,0.923c2.09-1.202,4.166-2.396,6.169-3.547
					c0.764,0.262,1.369,0.468,1.973,0.676c-0.341,0.853,0.119,1.75-0.1,2.622c-0.687,0.357-1.489,0.324-2.07,0.801
					c0.909,0.033,1.833,0.586,2.68-0.164c0.536-0.311,0.627-0.984,1.1-1.347c0.104,0.193,0.21,0.387,0.393,0.724
					c0.887-1.015,1.682-1.926,2.626-3.007c0.413,1.76,0.782,3.334,1.105,4.711c1.016,0,1.904,0,2.79,0
					c0.003,0.107,0.007,0.212,0.01,0.319c0.419-0.096,0.838-0.19,1.481-0.337c-0.396,0.558-0.662,0.932-0.987,1.391
					c0.294,0.135,0.54,0.247,0.833,0.382c-0.157,0.406-0.313,0.811-0.496,1.281c0.291,0.125,0.537,0.229,0.909,0.387
					c-0.329,0.466-0.596,0.845-0.922,1.309c0.184,0.08,0.352,0.154,0.451,0.197c-0.112,0.845-0.221,1.667-0.39,2.942
					c0.085-0.104-0.152,0.184-0.409,0.494c0.04,0.3,0.08,0.6,0.124,0.933c-0.19,0.215-0.392,0.444-0.645,0.729
					c0.147,0.12,0.28,0.229,0.993,0.806c-0.962,0.903-1.865,1.751-2.77,2.6c-0.167-0.147-0.333-0.295-0.501-0.443
					c-0.044,0.294-0.088,0.59-0.131,0.875c-0.158-0.097-0.334-0.203-0.87-0.528c0.345,1.057,0.577,1.766,0.865,2.648
					c2.806-1.21,5.491-2.369,8.258-3.562c0.898,0.791,1.813,1.597,2.892,2.549c-0.85,0.418-1.528,0.752-2.364,1.164
					c0.808,0.766,1.508,1.43,2.305,2.188c-0.602,0.335-1.096,0.61-1.716,0.956c0.125,1.051,0.254,2.128,0.382,3.205
					c-0.084,0.006-0.169,0.011-0.255,0.018c0.076,1.188,0.152,2.376,0.229,3.587c-2.024,0-4.047,0-6.204,0c0-1.316,0-2.678,0-4.219
					c-0.828,0.283-1.485,0.507-2.263,0.771c-0.314-0.774-0.604-1.492-0.977-2.41c-2.013,0.704-4.055,1.418-6.295,2.201
					c-0.456-1.134-0.895-2.222-1.347-3.349c0.342-0.247,0.609-0.44,1.107-0.802c-0.505-0.321-0.904-0.573-1.265-0.803
					c-0.537,0.242-0.967,0.435-1.714,0.771c-0.183-0.968-0.338-1.783-0.628-3.312c-1.599,1.368-2.94,2.515-4.436,3.794
					c0.804-1.282,1.528-2.435,2.315-3.687c-0.032-0.219-0.08-0.556-0.156-1.084c-0.852,1.206-1.607,2.277-2.65,3.754
					c0.274-1.172,0.438-1.873,0.601-2.575c-0.217-0.059-0.434-0.12-0.651-0.179c-0.423,1.034-0.845,2.068-1.503,3.675
					c0.355-0.185,0.032-0.016-1.134,0.592c1.398-0.266,1.901-0.36,2.857-0.542c-1.326,0.78-2.289,1.346-2.9,1.706
					c0.911,2.182,1.707,4.089,2.293,5.497c-0.275,2.406-0.491,4.294-0.722,6.316c3.217-1.027,6.613-2.111,10.095-3.224
					c0.351,0.937,0.657,1.752,0.974,2.595c-0.336,0.212-0.588,0.37-0.933,0.586c0.32,0.938,0.638,1.874,1.025,3.011
					c-2.763,0.78-5.337,1.506-7.926,2.236c0.199,0.451,0.362,0.821,0.261,0.594c-1.596,0.231-3.225,0.469-4.915,0.714
					c-0.096-0.601-0.232-1.458-0.402-2.53c3.624-1.195,7.336-2.419,11.047-3.643c-0.037-0.115-0.074-0.232-0.111-0.348
					c-3.34,1.064-6.681,2.128-10.044,3.199c-0.242-0.359-0.441-0.657-0.767-1.141c-0.772,1.408-1.467,2.673-2.161,3.94
					c0.408,0.475,0.738,0.86,0.948,1.104c0.088,0.678,0.155,1.182,0.221,1.692c-0.104-0.077-0.337-0.245-0.673-0.489
					c-0.346,0.306-0.709,0.626-1.574,1.392c-0.029,0.018-0.644,0.411-1.258,0.804c0.065,0.124,0.13,0.247,0.195,0.371
					c0.692-0.39,1.384-0.78,2.077-1.169c0.05,0.154,0.1,0.309,0.15,0.464c2.956-0.981,5.91-1.961,8.775-2.913
					c0.676,0.37,1.239,0.678,1.607,0.88c3.226,3.475,6.323,6.812,9.597,10.34c0,0.207,0,0.707,0,1.138
					c0.381,0.188,0.677,0.334,1.108,0.546c-0.412,0.393-0.629,0.601-0.952,0.908c0.197,0.809,0.402,1.656,0.647,2.662
					c-0.092,0.12-0.297,0.383-0.526,0.681c0.093,0.698,0.192,1.427,0.297,2.205c-0.675,0.137-1.238,0.252-1.766,0.36
					c-0.361-0.263-0.68-0.492-1.62-1.173c0.084,1.6,0.137,2.612,0.197,3.732c-1.521,0.076-3.128,0.155-4.87,0.242
					c0.102,0.604,0.179,1.055,0.352,2.078c-0.382-0.967-0.555-1.403-0.791-2c-0.759,0-1.699,0-2.906,0
					c-1.989-4.784-3.98-9.565-6.017-14.464c1.515,6.26,2.993,12.365,4.489,18.547c0.362-0.127,1.593-0.562,2.927-1.032
					c0.146,0.302,0.267,0.551,0.444,0.917c-1.606,0.583-3.11,1.128-4.714,1.709c-0.153,0.708-0.305,1.42-0.523,2.431
					c1.776-0.634,3.297-1.176,4.897-1.748c0.102,0.328,0.186,0.601,0.302,0.981c-1.823,0.665-3.583,1.306-5.432,1.981
					c-0.33,1.355-0.66,2.711-1.037,4.261c-3.1,0.222-6.219,0.445-9.083,0.65c0.692,1.624,1.379,3.236,2.061,4.837
					c-0.458,0.288-0.713,0.449-1.061,0.668c0.196,0.51,0.384,0.999,0.627,1.628c0.524-0.217,0.932-0.387,1.378-0.572
					c-0.2-0.499-0.347-0.867-0.528-1.321c0.407-0.248,0.773-0.469,1.67-1.011c-1.044-0.997-1.976-1.886-3.118-2.977
					c0.832-0.292,1.436-0.505,2.384-0.838c0.744,0.978,1.481,1.945,2.217,2.913c-0.22,0.163-0.439,0.324-0.659,0.487
					c0.2,0.308,0.402,0.615,0.615,0.943c-0.05,0.586-0.104,1.194-0.165,1.89c-0.2,0.12-0.479,0.286-0.769,0.459
					c0.903,1.076,1.761,2.099,2.617,3.118c-0.666,0.3-1.356,0.612-2.35,1.06c0.987,0.808,1.796,1.47,2.644,2.166
					c-2.107,0.945-3.956,1.774-5.955,2.671c1.659,2.484,3.22,4.819,4.829,7.226c-0.572,0.274-1.024,0.491-1.595,0.765
					c0.517,0.879,1.007,1.714,1.586,2.698c-0.836,0.266-1.593,0.506-2.414,0.767c-1.955-3.267-3.861-6.453-5.767-9.639
					c-0.121,0.062-0.241,0.125-0.362,0.187c0.143,0.498,0.287,0.996,0.485,1.683c-2.746,1.105-5.448,2.193-8.397,3.381
					c-0.75-2.815-1.446-5.432-2.179-8.185c-1.067,0.19-2.058,0.366-2.888,0.514c0,1.05,0,1.853,0,2.577
					c-0.574,0.3-0.954,0.498-1.59,0.83c0.601,0.262,0.972,0.422,1.469,0.638c0.073,0.302,0.165,0.686,0.319,1.327
					c-0.6,0.185-1.146,0.352-1.623,0.498c-0.381-0.524-0.618-0.85-1.053-1.446c-0.058,0.664-0.086,0.971-0.12,1.355
					c-0.432,0.35-0.903,0.729-1.232,0.993c0.534,0.702,1.039,1.366,1.644,2.161c-1.037,0.713-1.865,1.284-2.701,1.859
					c0.279,0.491,0.526,0.93,0.915,1.617c-1.13-0.137-1.963-0.238-2.796-0.338c-0.021,0.093-0.042,0.187-0.062,0.28
					c1.167,0.439,2.333,0.879,3.61,1.359c0.253,0.655,0.529,1.369,0.961,2.491c-2.46-1.051-4.541-1.941-6.699-2.865
					c-0.413,0.261-0.833,0.526-1.273,0.804c2.346,2.232,6.932,0.963,7.944,5.352c-3.911-1.004-7.072-3.856-11.313-3.896
					c0.111,0.944,0.154,1.301,0.232,1.969c-0.534-0.424-0.852-0.676-1.104-0.876c-1.948,0.449-3.875,0.893-6.093,1.405
					c-0.583-2.26-1.015-4.212-1.629-6.105c-0.147-0.454-1.046-1.111-1.356-1c-8.801,3.158-17.572,6.402-26.345,9.639
					c-0.141,0.052-0.25,0.191-0.54,0.422c0.559,0.187,0.952,0.318,1.56,0.523c-0.055,0.431-0.115,0.903-0.147,1.155
					c-1.217,2.069,3.211,5.789-2.481,5.944c0,2.065,0,3.993,0,6.208c-1.899,0.366-3.744,0.722-5.898,1.137c0,9.368,0,18.91,0,28.604
					c-6.402,0-12.952,0-19.728,0c0.037-0.765,0.072-1.499,0.12-2.469c0.533,0.382,0.81,0.58,1.512,1.083
					c0.43-4.674,0.831-9.029,1.243-13.501c-2.268,0-4.138,0-6.085,0c-0.212,0.332-0.447,0.701-0.781,1.224
					c0.143-0.477,0.234-0.786,0.357-1.199c-0.529,0-0.979,0-1.404,0c-0.834,2.749-1.493,5.552-2.583,8.178
					c-0.381,0.918-1.865,1.34-2.759,2.093c-0.746,0.628-1.646,1.295-1.985,2.143c-1.089,2.72-3.488,1.494-5.273,1.819
					c-1.875,0.343-3.858,0.077-5.699,0.077c0.042,0.872,0.087,1.774,0.131,2.677c-0.158,0.012-0.316,0.024-0.475,0.035
					c0.247,0.966,0.493,1.933,0.668,2.617c-2.131,0.716-3.937,1.322-5.903,1.982c0.589,1.502,1.096,2.794,1.752,4.467
					c0.142,2.312,0.309,5.043,0.496,8.09c-0.097,0.431-0.267,1.189-0.575,2.55c-1.257-0.933-2.209-1.638-3.162-2.343
					c0.171-0.202,0.342-0.403,0.512-0.605c-0.697-0.985-1.394-1.971-2.092-2.958c0.088-0.035,0.175-0.072,0.263-0.108
					c-0.83-2.292-1.659-4.583-2.54-7.019c-2.364,0.873-4.547,1.676-6.941,2.56c-0.909-2.564-2.006-5.653-3.112-8.771
					c0.317-0.242,0.583-0.444,0.97-0.738c-0.302-0.838-0.619-1.72-0.994-2.762c2.479-0.95,4.866-1.866,6.592-2.528
					c-4.184-1.58-8.873-3.026-13.223-5.159c-1.685-0.826-2.604-3.212-4.213-5.341c-2.086,0.758-5.207,1.891-8.037,2.92
					c-0.116,2.587-0.221,4.932-0.327,7.306c-0.936,1.26-1.839,2.477-2.901,3.906c0.069,0.196,0.216,0.609,0.392,1.104
					c-0.122,0.09-0.411,0.301-0.008,0.005c-0.581,1.667-0.917,2.631-1.254,3.596c-0.16-0.038-0.32-0.075-0.48-0.112
					c0-0.518,0-1.036,0-1.671c-0.372,0.198-0.653,0.347-0.936,0.498c-0.04-0.074-0.079-0.149-0.12-0.224
					c-1.454,0.575-2.909,1.152-5.163,2.044c0.776-1.63,1.099-2.308,1.419-2.985c-0.191-0.103-0.383-0.206-0.576-0.309
					c-0.229,0.36-0.46,0.721-0.985,1.542c-0.142,0.119-0.751,0.626-1.92,1.601c1.164-0.138,1.507-0.179,1.957-0.231
					c-0.127,0.309-0.223,0.542-0.317,0.771c2.986,1.801,3.925,9.759,1.64,14.926c-2.59,0-5.306,0-7.927,0c0,1.894,0,3.515,0,5.506
					c-0.103,0.08-0.515,0.403-1.082,0.846c0,0.635,0,1.425,0,2.216c-0.073-0.006-0.147-0.011-0.22-0.017
					c0.094,1.147,0.187,2.296,0.311,3.81c-0.056-0.083,0.114,0.17,0.286,0.423c-0.156,0.145-0.313,0.29-0.506,0.47
					c0.234,0.28,0.425,0.511,0.404,0.484c0.069,1.009,0.12,1.752,0.174,2.552c-0.076,0.048-0.255,0.159-0.478,0.298
					c0.244,0.301,0.431,0.532,0.708,0.875c-0.381,0.195-0.713,0.367-1.1,0.564c0.274,0.38,0.549,0.763,0.826,1.145
					c-0.119,0.081-0.237,0.164-0.356,0.245c-0.357-0.528-0.715-1.058-1.468-2.173c0.134,1.183,0.195,1.718,0.278,2.439
					c-0.562,0.381-1.227,0.833-2.058,1.396c-0.123-0.025-0.451-0.091-0.889-0.181c-0.245,0.303-0.513,0.635-0.869,1.076
					c-0.288-0.133-0.635-0.292-1.047-0.482c-0.188,0.375-0.393,0.78-0.564,1.12c-0.729,0-1.37,0-2.197,0
					c-0.069-0.087-0.271-0.336-0.513-0.635c-0.204,0.314-0.387,0.594-0.693,1.064c-0.181-0.547-0.289-0.875-0.381-1.155
					c-0.584-0.241-1.134-0.468-1.91-0.789c0.146,0.839,0.278,1.594,0.41,2.348c-0.078,0.03-0.156,0.058-0.234,0.088
					c-0.203-0.584-0.406-1.167-0.608-1.75c-0.162,0.053-0.322,0.105-0.482,0.158c-0.395-1.081-0.789-2.161-1.378-3.774
					c-1.717-0.176-3.781-0.388-6.158-0.63c0.07-0.054-0.147,0.11-0.391,0.292c-0.369-0.22-0.715-0.426-1.062-0.633
					c-0.042,0.122-0.084,0.244-0.127,0.366c-1.232-0.402-2.463-0.805-4.416-1.442c0.549-0.164,0.268-0.08,0.51-0.151
					c-1.378-0.14-2.251-0.228-2.876-0.29c0.12-0.03,0.498-0.122,0.875-0.214c-0.053-0.316-0.105-0.633-0.158-0.948
					c-3.309,0.514-6.616,1.03-9.924,1.545c0.018-0.066,0.034-0.132,0.052-0.198c-2.404,0.124-4.808,0.248-7.49,0.387
					c0.079,0.091-0.117-0.135-0.341-0.394c-0.289,0.165-0.55,0.313-1.016,0.578c-1.023-0.553-2.147-1.16-3.985-2.153
					c0.215,0-0.453,0-1.491,0c0.649-0.286,0.964-0.424,1.778-0.781c-1.384-0.219-2.292-0.361-3.908-0.616
					c0.053,0.035-0.542-0.368-1.164-0.788c-0.303,0.646-0.525,1.119-0.834,1.777c0.176,0.657,0.402,1.505,0.655,2.452
					c-1.821,1.239-3.614,2.461-5.411,3.686c0.143,0.439,0.247,0.76,0.361,1.109c-0.243,0.504-0.491,1.024-0.766,1.596
					c0.256,0.543,0.53,1.125,0.801,1.7c-2.616,2.027-5.192,4.024-8.492,6.582c1.264-0.147,1.562-0.183,1.935-0.226
					c0.249,0.198,0.539,0.43,0.763,0.608c-0.178,0.703-0.332,1.314-0.498,1.969c-0.411-0.02-0.776-0.037-1.203-0.056
					c-0.25,0.643-0.49,1.267-0.913,2.356c0.917-0.699,1.382-1.054,1.922-1.467c0.254,0.185,0.518,0.377,0.712,0.518
					c-0.169,0.762-0.314,1.418-0.469,2.118c-0.432-0.038-0.799-0.071-1.215-0.108c-0.33,0.48-0.667,0.97-1.038,1.51
					c-0.128-0.135-0.25-0.262-0.409-0.432c-0.233,0.208-0.453,0.404-0.627,0.56c-0.4,0.038-0.723,0.067-1.833,0.17
					c0.779,0.434,1.042,0.582,0.611,0.341c0.018,0.031-0.349-0.524-0.618-1.123c-0.291-0.652-0.491-1.346-1.082-1.981
					c0,0.606,0,1.214,0,2.03c-0.079,0.089-0.294,0.329-0.396,0.443c-0.172-0.635-0.344-1.27-0.333-1.227
					c-0.82-0.922-1.204-1.353-1.318-1.48c-1.531-0.793-2.773-1.435-3.912-2.023c0.074-0.757,0.111-1.15,0.18-1.863
					c-1.607,1.068-2.997,1.992-4.802,3.191c-0.284-1.987-0.386-3.715-0.812-5.36c-0.356-1.372-1.092-2.647-1.66-3.966
					c-0.303,0.17-0.606,0.341-0.91,0.512c-0.869-0.821-1.737-1.641-2.693-2.543c0-1.374,0-2.823,0-4.265
					c-0.438-0.25-0.758-0.432-1.193-0.68c-0.034,0.295-0.055,0.486-0.125,1.098c-0.828-0.912-1.471-1.621-2.052-2.259
					c-0.114-1.027-0.215-1.94-0.331-2.976c-1.144,0.409-2.364,0.845-4.065,1.452c0.736,1.868,1.424,3.615,2.067,5.25
					c-0.305-0.347-0.716-0.815-1.127-1.283c-0.227,0.11-0.454,0.221-0.68,0.331c0.663,1.494,1.324,2.988,1.986,4.482
					c-0.063,0.036-0.127,0.072-0.191,0.109c-0.801-1.283-1.602-2.568-2.062-3.306c0-2.255,0-3.834,0-5.816
					c-2.211,1.008-4.138,1.886-6.065,2.765c0.135,0.281,0.269,0.562,0.403,0.842c0.97-0.384,1.939-0.766,2.992-1.182
					c0.216,0.232,0.437,0.468,0.839,0.897c-2.392,1.051-4.632,2.034-6.916,3.037c0.479,1.346,0.842,2.365,1.238,3.476
					c-0.387,0-0.669,0-1.141,0c0.382,1.157,0.733,2.218,0.942,2.853c-1.121-1.101-2.483-2.44-3.844-3.778
					c-0.169,0.174-0.337,0.346-0.505,0.52c-0.19-0.438-0.38-0.875-0.614-1.41c-0.3,0.09-0.565,0.17-1.388,0.417
					c1.248,1.569,2.308,2.901,3.821,4.802c0.132-1.126,0.153-1.314,0.2-1.709c0.275,0.806,0.48,1.407,0.746,2.187
					c-1.016-0.427-1.854-0.779-2.948-1.238c-0.291-0.518-0.752-1.336-1.251-2.222c-0.262,0.137-0.481,0.253-0.7,0.367
					c0.654,1.477,1.274,2.879,1.895,4.284c-0.089,0.047-0.177,0.094-0.266,0.142c-0.404-0.474-0.81-0.947-1.215-1.421
					c-0.132,0.096-0.265,0.191-0.397,0.286c0.116,0.503,0.23,1.006,0.347,1.508c-0.1,0.045-0.2,0.089-0.3,0.134
					c-0.382-0.877-0.766-1.754-1.141-2.616c-0.736,0.098-1.371,0.183-2.306,0.307c0.33,1.008,0.64,1.957,0.984,3.012
					c0.541-0.169,0.902-0.281,2.088-0.652c-1.179,0.599-1.601,0.813-2.203,1.12c-0.75-1.452-1.457-2.819-2.224-4.303
					c-0.241,0.072-0.502,0.149-0.817,0.244c0.665,1.486,1.292,2.888,1.919,4.29c-0.118,0.062-0.235,0.124-0.353,0.187
					c-0.23-0.39-0.461-0.78-0.773-1.306c-0.173,0.021-0.435,0.054-0.779,0.098c0.149,0.634,0.269,1.14,0.477,2.023
					c-0.824-1.256-1.421-2.165-2.017-3.075l0.023,0.019c-0.342-1.112-0.685-2.223-1.026-3.333c0.125-0.045,0.25-0.09,0.375-0.136
					c0.354,0.879,0.708,1.757,1.099,2.73c0.229-0.09,0.488-0.192,0.708-0.278c-0.241-1.078-0.461-2.064-0.682-3.05l-0.006,0.021
					c0.445-0.157,0.889-0.313,1.501-0.529c0.447,0.951,0.857,1.825,1.32,2.808c0.29-0.178,0.518-0.317,0.877-0.537
					c-0.388-0.295-0.635-0.483-0.797-0.607c0-0.774,0-1.471,0-2.236c0.486-0.155,0.917-0.293,1.347-0.431
					c0.023,0.06,0.046,0.12,0.069,0.18c-0.332,0.13-0.666,0.261-1.194,0.468c0.27,0.439,0.475,0.771,0.62,1.006
					c0.166,0.669,0.315,1.265,0.536,2.153c0.825-0.592,1.399-1.004,1.996-1.434c-0.354-1.302-0.699-2.573-1.01-3.72
					c1.661-1.256,3.251-2.457,4.841-3.657c-0.061-0.117-0.122-0.232-0.184-0.348c-5.297,1.979-10.596,3.96-15.588,5.826
					c-0.646,0.921-1.119,1.595-1.714,2.443c0.005,0.053,0.032,0.35,0.102,1.126c-2.145-0.377-4.163-0.732-6.181-1.087
					c-0.07,0.419-0.141,0.837-0.212,1.256c0.762,0,1.523,0,2.554,0c0.314,0.338,0.836,0.9,1.318,1.418
					c1.451-0.564,2.873-1.116,4.437-1.725c0.097,0.35,0.223,0.803,0.374,1.345c0.234-0.135,0.438-0.254,0.644-0.374
					c0.045,0.139,0.09,0.277,0.134,0.416c-1.196,0.229-2.392,0.457-3.814,0.729c0.354,0.414,0.529,0.618,0.703,0.823
					c-0.067,0.238-0.133,0.476-0.199,0.713c-1.614-0.496-3.229-0.99-4.843-1.485c-0.051,0.122-0.104,0.246-0.156,0.369
					c-0.249-0.162-0.496-0.324-0.8-0.522c-0.147,0.52-0.29,1.02-0.523,1.839c1.063,0.125,2.051,0.242,3.165,0.374
					c-0.591,0.618-1.13,1.182-1.706,1.784c-0.379-0.264-0.622-0.433-0.911-0.633c-0.228,0.121-0.494,0.263-0.834,0.444
					c0.184,0.202,0.34,0.375,0.457,0.503c-0.662,0.421-1.275,0.81-1.941,1.232c-0.124-0.182-0.313-0.458-0.51-0.745
					c0.395-0.344,0.771-0.673,1.216-1.062c-0.038-0.369-0.078-0.776-0.155-1.537c-0.464,0.779-0.735,1.235-0.967,1.626
					c-0.947-0.368-1.755-0.682-2.612-1.015c-0.56,0.868-1.097,1.702-1.885,2.924c-0.896-0.213-2.123-0.504-3.97-0.944
					c1.049-0.158,1.462-0.22,1.931-0.29c-0.042-0.681-0.081-1.328-0.141-2.298c0.536,0.398,0.811,0.603,1.147,0.851
					c0.18-0.258,0.359-0.515,0.6-0.86c0.281,0.451,0.519,0.833,0.739,1.188c0.728-0.435,1.391-0.832,2.663-1.593
					c-0.218,0.229,0.063-0.067,0.46-0.488c-0.264-0.537-0.548-1.115-0.847-1.724c-0.982,0.687-1.721,1.202-2.554,1.785
					c-0.122-0.39-0.22-0.701-0.336-1.075c-0.238-0.141-0.524-0.309-0.847-0.499c-0.193,0.271-0.369,0.514-0.421,0.587
					c-0.935,0.064-1.713,0.119-2.296,0.159c0.04-0.448,0.092-1.042,0.174-1.947c-0.855,0.409-1.384,0.662-1.971,0.943
					c0.157,0.432,0.28,0.771,0.442,1.217c-0.292,0.146-0.569,0.285-0.729,0.365c-0.254-0.636-0.473-1.181-0.711-1.779
					c-1.384,0.227-2.585,0.425-3.813,0.627c-0.078-0.597-0.129-0.997-0.195-1.508c-0.593,0.151-1.045,0.266-1.499,0.381
					c-3.536-5.419-1.824-11.565-2.359-17.584c-1.314,0.437-2.491,0.828-4.087,1.36c-0.257-6.179-5.441-8.205-9.452-11.479
					c0.958-0.365,1.795-0.685,3.048-1.163c-0.479-0.315-0.746-0.492-1.042-0.687c-0.31,0.133-0.58,0.25-1.156,0.497
					c-0.537-1.625-1.053-3.186-1.568-4.747c-0.127,0.034-0.255,0.068-0.382,0.102c0.364,1.541,0.728,3.081,1.064,4.506
					c-0.182-0.343-0.427-0.803-0.672-1.264c-0.113,0.039-0.226,0.077-0.338,0.114c0.09,0.488,0.18,0.975,0.373,2.014
					c-0.545-1.469-0.899-2.426-1.495-4.037c0.541,0.957,0.745,1.319,0.95,1.682c0.114-0.037,0.228-0.075,0.34-0.113
					c-0.183-0.981-0.367-1.962-0.574-3.071c-0.588,0.345-0.981,0.578-1.476,0.869c0.124,0.445,0.256,0.918,0.391,1.403
					c-0.5-0.805-0.985-1.587-1.746-2.814c0.55,0.615,0.749,0.838,1.508,1.687c-0.574-2.033-0.931-3.297-1.335-4.729
					c-0.708,0.41-1.143,0.661-1.701,0.983c0.07,0.477,0.141,0.956,0.281,1.909c-0.558-0.509-0.876-0.8-1.425-1.3
					c-0.104,0.017-0.554,0.087-2.201,0.344c1.225,0.692,1.747,0.988,2.331,1.317c-0.083,0.238-0.182,0.521-0.316,0.91
					c0.593,0.674,1.214,1.378,2.32,2.634c-0.293-1.244-0.417-1.769-0.664-2.819c0.412,1.043,0.634,1.607,0.877,2.224
					c0.258-0.022,0.5-0.043,0.561-0.047c0.331,0.502,0.583,0.887,1.247,1.895c-0.031-0.146,0.113,0.544,0.181,0.872
					c-0.583-0.682-1.39-1.622-2.405-2.807c-0.221,0.773-0.311,1.085-0.346,1.208c-0.639-0.742-1.35-1.564-2.06-2.388
					c-0.205,0.127-0.41,0.255-0.614,0.381c0.837,1.542,1.675,3.083,2.513,4.624c-0.13,0.068-0.261,0.135-0.391,0.204
					c-0.723-1.266-1.447-2.531-2.347-4.104c0.232,1.303,0.406,2.287,0.598,3.364c-0.178,0.145-0.396,0.323-0.625,0.51
					c0.146,0.467,0.274,0.882,0.402,1.297c-0.044,0.019-0.087,0.036-0.13,0.055c-0.679-1.598-1.357-3.194-2.037-4.792
					c0.145-0.118,0.295-0.229,0.49-0.294c-0.229,0.02-0.326,0.196-0.461,0.323c-0.217-0.527-0.433-1.055-0.645-1.571
					c0.317-0.332,0.551-0.577,0.736-0.77c-0.064-0.757-0.125-1.464-0.192-2.248c-0.318,0.351-0.623,0.686-1.281,1.41
					c0.256-0.931,0.363-1.318,0.479-1.745c-0.396-0.196-0.713-0.353-1.073-0.531c-0.203,0.322-0.376,0.596-0.6,0.954
					c-0.316-0.395-0.584-0.729-0.938-1.169c-0.229,0.118-0.459,0.236-0.82,0.421c0.582,0.608,1.047,1.097,1.598,1.674
					c-0.064,0.121-0.196,0.367-0.327,0.612c0.278,0.357,0.523,0.671,1.197,1.537c-0.969-0.409-1.355-0.571-1.9-0.801
					c-0.057,0.046-0.244,0.197-0.519,0.42c0.448,0.647,0.838,1.209,1.26,1.818c0.146-0.101-0.101,0.07-0.393,0.274
					c-0.237-0.441-0.424-0.789-0.89-1.654c-0.224,1.069-0.349,1.664-0.49,2.334c-0.159-0.006-0.42-0.019-0.514-0.023
					c-0.269-0.917-0.509-1.734-0.803-2.738c-0.388,0.485-0.633,0.793-1.26,1.579c0.189-1.041,0.274-1.504,0.325-1.79
					c0.633-0.492,1.122-0.872,1.581-1.229c-0.25-0.673-0.444-1.202-0.698-1.887c-0.327,0.423-0.568,0.734-1.165,1.503
					c0.167-0.992,0.245-1.449,0.303-1.795c0.625-0.441,1.142-0.806,1.526-1.078c0.917,0,1.71,0,2.572,0c0-2.184,0-4.369,0-6.435
					c0.663-0.141,1.219-0.259,2.463-0.523c0.267-3.08,0.552-6.363,0.785-9.052c-2.316-1.842-4.009-3.188-5.703-4.535l0.024,0.026
					c-1.408-1.289-2.815-2.579-4.329-3.965c0.834-0.342,1.598-0.655,2.528-1.037c-0.882-0.809-1.624-1.49-2.585-2.37
					c1.189-0.379,2.16-0.688,3.129-0.998c-0.017-0.02-0.033-0.039-0.05-0.059c1.081-0.417,2.161-0.832,3.344-1.288
					c0.441,1.054,0.82,1.963,1.2,2.873c0.103-0.039,0.206-0.077,0.308-0.117c-0.269-0.888-0.539-1.775-0.843-2.776
					c1.691-0.71,3.321-1.395,5.054-2.123c-2.441-3.728-4.825-7.368-7.239-11.054c0.694-0.567,0.956-0.782,1.264-1.034
					c-0.285-0.83-0.578-1.68-0.811-2.356c1.789-2.478,5.72-2.181,6.688-6.275c-1.027,0.913-1.556,1.383-2.037,1.812
					c-0.593-0.031-1.119-0.058-1.643-0.086c-0.003-0.051-0.006-0.102-0.01-0.153c0.479,0,0.958,0,1.649,0
					c0.368-0.813,0.79-1.744,1.293-2.855c-0.054-0.463-0.132-1.123-0.256-2.175c0.771,0.389,1.359,0.684,2.792,1.406
					c-1.123-1.427-1.715-2.18-2.503-3.183c-0.031-0.159-0.129-0.672-0.172-0.902c0.928,0.394,2.032,0.861,3.454,1.466
					c0.061-1.051,0.079-1.375,0.103-1.761c-0.695-0.23-1.333-0.441-2.226-0.737c0.931-0.344,1.642-0.605,3.173-1.171
					c-1.377-1.017-2.34-1.727-3.143-2.319c0.66-0.211,1.783-0.569,2.965-0.947c-0.186-0.558-0.352-1.059-0.519-1.561
					c-0.023,0.009-0.045,0.019-0.068,0.028c-2.3-6.177-4.602-12.354-6.953-18.665c-1.192,0.402-2.182,0.736-3.288,1.11
					c-0.381-0.524-0.786-1.079-1.444-1.983c0,1.43,0,2.443,0,3.543c-0.392,0.18-0.819,0.375-1.47,0.673
					c-0.253-0.634-0.495-1.24-0.746-1.869c0.648-0.432,1.173-0.782,1.87-1.246c-0.831-0.417-1.389-0.699-1.979-0.996
					c-1.117,0.412-2.234,0.823-3.508,1.291c-1.507-4.002-2.986-7.929-4.473-11.877c0.335-0.25,0.601-0.448,0.952-0.709
					c-0.302-0.885-0.606-1.779-0.957-2.806c2.167-0.823,4.265-1.619,6.52-2.476c0.392,0.957,0.761,1.859,1.146,2.798
					c0.233,0.121,0.495,0.257,0.17,0.089c0.603,1.854,1.05,3.225,1.516,4.657c0.331,0,0.581,0,1.088,0
					c-0.39,0.296-0.569,0.433-0.75,0.569c0.032,0.125,0.064,0.25,0.094,0.377c0.487-0.148,0.973-0.295,1.611-0.489
					c-1.621-4.266-3.177-8.402-4.788-12.519c-0.099-0.255-0.6-0.416-0.944-0.502c-3.517-0.887-7.04-1.749-10.396-3.248
					c3.639,1.021,7.277,2.04,11.057,3.1c-0.147-0.498-0.275-0.929-0.412-1.395c-0.738-0.061-1.41-0.117-1.408-0.117
					c-1.895-0.812-3.211-1.375-4.526-1.94c0.045-0.179,0.09-0.359,0.135-0.539c-3.797-1.16-7.581-2.368-11.394-3.468
					c-3.949-1.138-7.927-2.173-11.741-3.212c0.26-0.34,0.495-0.647,0.729-0.953c0.399-0.358,0.883-0.546,1.577-0.716
					c-0.634,0.086-0.98,0.001-1.156-0.497c-0.124-0.353-0.385-0.609-0.823-0.541c-0.861-1.676-1.723-3.353-2.91-5.667
					c1.25,1.939,2.1,3.256,2.949,4.572c0.171-0.094,0.342-0.188,0.512-0.282c-0.209-0.693-0.42-1.388-0.589-1.943
					c0.25,0.05,0.53,0.108,0.811,0.166c0.059-0.306,0.119-0.61,0.178-0.916c0.197-0.026,0.376,0,0.513,0.166
					c-0.141-0.144-0.311-0.179-0.502-0.137c-0.26-0.662-0.522-1.323-0.844-2.14c0.417-0.099,0.698-0.165,0.939-0.222
					c0.449,0.989,0.836,1.843,1.224,2.695c0.154-0.058,0.307-0.114,0.46-0.172c-0.047-0.425-0.096-0.849-0.127-1.138
					c0.454,0.564,0.95,1.183,1.239,1.541c0.801,0.095,1.246,0.146,2.315,0.272c-0.988-1.377-1.737-2.422-2.526-3.521
					c0.456,0.021,0.866,0.041,1.246,0.058c0.401,0.711,0.781,1.383,1.268,2.247c-0.014,0.046-0.1,0.315-0.268,0.854
					c0.685-0.133,1.238-0.242,1.877-0.366c1.863,1.293,3.775,2.621,6.003,4.166c0.566-1.012,1.084-1.938,1.68-3.002
					c0.38,0.022,0.913,0.054,1.849,0.11c-0.124-0.725-0.234-1.36-0.467-2.713c-0.092,0.521-0.045,0.257,0.027-0.156
					c-0.04,0.009,0.186-0.042,0.526-0.12c-0.365-0.914-0.701-1.758-1.016-2.549c0.391-0.031,0.745-0.058,1.268-0.099
					c-0.398-1.046-0.734-1.925-1.1-2.882c0.208-0.163,0.424-0.333,0.705-0.553c-0.407-0.485-0.78-0.931-1.252-1.495
					c0.472-0.321,1.041-0.708,1.767-1.2c-0.529-0.22-0.851-0.354-1.07-0.445c-0.066-0.789-0.125-1.496-0.189-2.245
					c0.437-0.134,0.884-0.272,1.462-0.451c0.379,1.011,0.755,2.019,0.927,2.477c0.067,1.525,0.111,2.507,0.144,3.249
					c1.159,0.512,2.063,0.911,2.662,1.174c0-4.598,0-9.308,0-14.016c-0.199-0.007-0.396-0.013-0.594-0.021
					c0.941-1.572,1.882-3.143,2.885-4.82c-3.734-2.5-7.504-5.025-11.266-7.544c0-0.454,0-0.869,0-1.251
					c1.334,0.383,2.586,0.744,3.838,1.104c0.066-0.146,0.131-0.292,0.197-0.438c-1.328-0.937-2.657-1.875-4.108-2.899
					c0.015-0.298,0.034-0.711,0.046-0.976c5.964,1.345,11.816,2.665,17.667,3.984c0.019-0.097,0.038-0.193,0.056-0.289
					c2.123,0.592,4.245,1.186,6.368,1.779c-0.042,0.141-0.083,0.281-0.125,0.423c0.368,0.067,0.736,0.135,1.107,0.203
					c-0.381,0.229-0.74,0.445-1.1,0.66c-0.245,0.143-0.287,0.365-0.245,0.642c0.065-0.169,0.145-0.299,0.281-0.388
					c1.551,4.406,3.102,8.813,4.755,13.511c0.157,0,1.033,0,2.428,0c-0.773-0.328-1.101-0.468-1.64-0.696
					c0.725-0.134,1.291-0.238,1.883-0.349c0.263-0.548,0.549-1.148,0.903-1.886c-0.34-0.094-0.719-0.2-0.731-0.204
					c-0.869-0.373-1.405-0.602-1.833-0.786c1.017-0.865,2.163-1.839,3.309-2.814c-0.116-0.141-0.233-0.283-0.349-0.423
					c-0.82,0.634-1.641,1.267-2.508,1.937c0.123-0.271,0.238-0.528,0.491-1.089c-0.546,0.232-0.819,0.347-1.223,0.519
					c0.548-0.597,1.017-1.106,1.485-1.616L119.195,125.312z"/>
			</g>
			<g>
				<path fill="#FFFFFF" d="M58.235,243.856l36.184-14.426l1.669,9.729l-25.586,10.2l2.187,12.73l22.402-8.929l1.663,9.609
					L74.352,271.7l3.994,23.207l-10.595,4.224L58.235,243.856z"/>
				<path fill="#FFFFFF" d="M112.35,222.203l12.05-4.804l27.583,48.152l-11.565,4.61l-5.256-10.063l-18.8,7.496l-1.566,12.782
					l-11.147,4.444L112.35,222.203z M117.597,256.907l12.951-5.162l-10.119-19.242L117.597,256.907z"/>
				<path fill="#FFFFFF" d="M163.206,242.82c0.769,2.398,1.729,4.032,2.882,4.911c2.129,1.586,5.295,1.542,9.496-0.134
					c2.516-1.003,4.506-2.118,5.971-3.344c2.786-2.339,3.903-5.073,3.353-8.198c-0.304-1.831-1.284-2.952-2.945-3.359
					c-1.628-0.394-4.093-0.334-7.393,0.179l-5.642,0.843c-5.533,0.815-9.446,0.865-11.739,0.146
					c-3.87-1.185-6.273-4.495-7.208-9.928c-0.852-4.955,0.104-9.736,2.869-14.344c2.763-4.606,7.367-8.194,13.807-10.761
					c5.379-2.145,10.229-2.425,14.551-0.845c4.321,1.582,7.079,5.277,8.271,11.088l-10.25,4.085
					c-0.737-3.262-2.473-5.099-5.205-5.507c-1.818-0.265-3.962,0.094-6.43,1.079c-2.749,1.095-4.842,2.571-6.281,4.429
					c-1.44,1.857-1.971,3.863-1.596,6.013c0.335,1.98,1.396,3.134,3.188,3.466c1.14,0.241,3.484,0.121,7.039-0.359l9.186-1.216
					c4.017-0.53,7.152-0.349,9.407,0.545c3.496,1.389,5.667,4.55,6.508,9.482c0.867,5.059-0.198,9.971-3.193,14.735
					c-2.996,4.768-7.748,8.446-14.258,11.042c-6.649,2.65-12.158,3.088-16.531,1.312c-4.373-1.772-7.05-5.541-8.037-11.302
					L163.206,242.82z"/>
				<path fill="#FFFFFF" d="M210.514,223.962c0.769,2.396,1.729,4.033,2.881,4.911c2.13,1.585,5.296,1.541,9.496-0.133
					c2.517-1.003,4.507-2.119,5.973-3.345c2.784-2.339,3.9-5.073,3.352-8.198c-0.302-1.831-1.284-2.952-2.944-3.362
					c-1.628-0.391-4.093-0.332-7.392,0.179l-5.644,0.845c-5.533,0.815-9.445,0.865-11.739,0.146
					c-3.869-1.187-6.273-4.496-7.207-9.928c-0.854-4.956,0.105-9.738,2.869-14.345c2.765-4.605,7.367-8.193,13.808-10.761
					c5.378-2.143,10.229-2.425,14.55-0.844c4.323,1.581,7.08,5.276,8.273,11.087l-10.25,4.085c-0.738-3.262-2.473-5.099-5.205-5.508
					c-1.818-0.264-3.961,0.095-6.43,1.08c-2.748,1.096-4.841,2.571-6.281,4.428c-1.439,1.859-1.972,3.865-1.596,6.015
					c0.335,1.979,1.396,3.135,3.187,3.465c1.14,0.241,3.486,0.122,7.04-0.359l9.188-1.215c4.014-0.53,7.149-0.348,9.406,0.545
					c3.497,1.388,5.667,4.549,6.509,9.483c0.867,5.059-0.197,9.971-3.194,14.735c-2.996,4.767-7.748,8.447-14.258,11.042
					c-6.648,2.65-12.159,3.088-16.53,1.313c-4.373-1.776-7.051-5.542-8.036-11.303L210.514,223.962z"/>
				<path fill="#FFFFFF" d="M243.548,169.904l10.664-4.251l7.79,45.407l25.276-10.074l1.719,9.947l-35.94,14.329L243.548,169.904z"
					/>
				<path fill="#FFFFFF" d="M326.276,147.398l-27.008,10.768l2.035,11.749l24.792-9.884l1.628,9.624l-24.791,9.883l2.46,14.226
					l28.255-11.262l1.718,9.949l-38.675,15.416l-9.509-55.356l37.43-14.921L326.276,147.398z"/>
				<path fill="#FFFFFF" d="M373.549,123.736c1.346,0.962,2.488,2.166,3.425,3.611s1.599,3.254,1.984,5.429
					c0.436,2.636,0.259,5.467-0.527,8.495c-0.786,3.029-2.497,5.631-5.133,7.806c2.523,0.091,4.439,0.885,5.745,2.383
					c1.307,1.501,2.293,4.19,2.957,8.072l0.64,3.716c0.445,2.527,0.833,4.203,1.164,5.036c0.524,1.314,1.351,2.11,2.475,2.384
					l0.269,1.377l-11.737,4.678c-0.544-1.093-0.953-1.987-1.231-2.679c-0.546-1.439-0.969-2.969-1.267-4.592l-0.955-5.116
					c-0.652-3.511-1.65-5.629-2.994-6.35c-1.345-0.722-3.585-0.457-6.725,0.795l-11.012,4.389l3.755,21.697l-10.424,4.155
					l-9.507-55.358l25.035-9.98c3.582-1.347,6.413-1.967,8.488-1.857C370.048,121.937,371.906,122.572,373.549,123.736z
					 M346.502,139.134l2.557,14.871l12.083-4.819c2.4-0.956,4.148-1.974,5.244-3.052c1.945-1.899,2.66-4.404,2.143-7.515
					c-0.588-3.35-2.005-5.194-4.251-5.527c-1.279-0.187-3.071,0.181-5.38,1.1L346.502,139.134z"/>
				<path fill="#FFFFFF" d="M438.941,92.012l15.339-6.115l9.508,55.358l-9.938,3.961l-6.456-37.433
					c-0.164-1.084-0.401-2.602-0.712-4.552c-0.309-1.948-0.565-3.446-0.766-4.49l-1.657,50.298l-10.354,4.127l-17.594-42.623
					c0.202,1.042,0.481,2.531,0.838,4.461c0.353,1.932,0.612,3.441,0.779,4.526l6.456,37.433l-9.937,3.961l-9.508-55.357
					l15.512-6.184l16.725,39.841L438.941,92.012z"/>
				<path fill="#FFFFFF" d="M478.797,76.124l12.049-4.804l27.583,48.152l-11.567,4.61l-5.253-10.063l-18.801,7.496l-1.567,12.783
					l-11.148,4.444L478.797,76.124z M484.044,110.829l12.95-5.162l-10.118-19.242L484.044,110.829z"/>
				<path fill="#FFFFFF" d="M543.163,88.345l-10.838,4.32l3.439,19.897l-10.597,4.224l-9.508-55.358l22.229-8.862
					c5.125-2.042,9.454-2.242,12.983-0.601c3.529,1.644,5.817,5.454,6.863,11.431c1.109,6.539,0.37,11.769-2.213,15.688
					C552.938,83.004,548.82,86.092,543.163,88.345z M537.821,62.867l-9.936,3.962l2.805,16.296l9.936-3.96
					c2.516-1.003,4.361-2.447,5.535-4.334c1.175-1.884,1.512-4.267,1.007-7.141c-0.482-2.885-1.531-4.661-3.147-5.329
					C542.404,61.697,540.337,61.865,537.821,62.867z"/>
			</g>
		</g>
	</a>
</g>
</svg>
